<?xml version="1.0" encoding="UTF-8"?>
<svg version="1.1" xmlns="http://www.w3.org/2000/svg" width="500" height="500">
<path d="M0 0 C0.67029704 -0.00367669 1.34059408 -0.00735338 2.03120315 -0.01114148 C4.27023015 -0.02212674 6.50921065 -0.02601336 8.7482605 -0.02983093 C10.35674688 -0.03609954 11.96523183 -0.04274669 13.57371521 -0.04974365 C18.85047404 -0.0707413 24.12723301 -0.08114285 29.40402222 -0.09111023 C31.22428273 -0.09515956 33.0445431 -0.09927653 34.86480331 -0.10346031 C43.41899432 -0.1225035 51.97317676 -0.13673568 60.52738488 -0.14507228 C70.3839745 -0.1548381 80.24033916 -0.18114416 90.09684956 -0.22157317 C97.72678504 -0.25178944 105.35665623 -0.26654642 112.98665035 -0.26985329 C117.53826129 -0.2721977 122.08963167 -0.2810784 126.64117813 -0.30631447 C130.92748669 -0.32969657 135.213398 -0.33378799 139.49975395 -0.32355309 C141.06578205 -0.32306005 142.63183039 -0.32931136 144.19779778 -0.34310913 C156.80115687 -0.44787074 166.95873941 1.0182862 176.32980347 9.98701477 C180.90179476 15.24337898 183.3233445 21.26979593 183.35588074 28.22409058 C183.36661369 29.79887428 183.36661369 29.79887428 183.37756348 31.4054718 C183.38025238 32.55716858 183.38294128 33.70886536 183.38571167 34.89546204 C183.39228287 36.10878708 183.39885406 37.32211212 183.40562439 38.57220459 C183.42537778 42.59849798 183.43702917 46.62475149 183.44699097 50.65107727 C183.45103988 52.03983518 183.45515684 53.42859288 183.45934105 54.81735039 C183.4783938 61.34632614 183.49262148 67.87529062 183.50095302 74.40428883 C183.51070918 81.92454935 183.53698552 89.44451426 183.57745391 96.96467072 C183.60770001 102.78649782 183.62243013 108.60824063 183.62573403 114.43014473 C183.62807597 117.90252331 183.63692278 121.37458615 183.66219521 124.84687996 C183.68999318 128.72905343 183.68561889 132.61084442 183.67868042 136.49311829 C183.69789551 138.19940903 183.69789551 138.19940903 183.71749878 139.94017029 C183.65632389 149.36327661 181.52887005 157.56974654 174.98605347 164.61201477 C168.34477557 170.34832733 161.84500262 172.24565675 153.23703003 172.35249329 C152.54394241 172.36239288 151.8508548 172.37229248 151.13676453 172.38249207 C148.85348894 172.41399521 146.57019258 172.43882004 144.28683472 172.46357727 C142.70070871 172.48415647 141.11458808 172.5051532 139.5284729 172.52655029 C135.35940911 172.58167123 131.19029664 172.63112439 127.02114868 172.67939758 C122.76461469 172.72968558 118.50815114 172.78533351 114.25167847 172.8405304 C105.90408023 172.94798991 97.55642196 173.04896636 89.20870972 173.14717102 C88.87870972 177.76717102 88.54870972 182.38717102 88.20870972 187.14717102 C89.71562378 187.10076477 91.22253784 187.05435852 92.77511597 187.00654602 C94.77379398 186.96901216 96.77249353 186.93261374 98.77120972 186.89717102 C99.76185425 186.8636554 100.75249878 186.83013977 101.77316284 186.79560852 C108.17104313 186.71058686 112.04397649 187.26495544 117.20870972 191.14717102 C119.53111977 194.92108735 120.46812155 197.8974718 120.14620972 202.27217102 C119.12293988 206.50168634 118.47129467 208.29240919 115.20870972 211.14717102 C107.84899355 214.8172144 100.12671929 214.58372256 92.08370972 214.54560852 C90.72807662 214.5476347 89.37244459 214.55055064 88.01681519 214.55430603 C85.18939738 214.5587039 82.36226584 214.55238118 79.53488159 214.5382843 C75.93401291 214.5211935 72.33381533 214.53104847 68.73297119 214.54900169 C65.93774476 214.55990883 63.14267408 214.55636173 60.34744263 214.54861832 C58.38176023 214.54568034 56.41607146 214.55469578 54.45040894 214.56401062 C46.54994177 214.50234568 38.95816291 214.33420623 32.70870972 209.02217102 C30.65589879 205.08761674 30.00556574 201.57727225 30.20870972 197.14717102 C31.69654658 192.91858205 33.34459328 190.44149016 37.20870972 188.14717102 C40.20886883 187.14711798 42.18294728 187.03141517 45.31417847 187.04951477 C46.29708862 187.05273743 47.27999878 187.05596008 48.29269409 187.0592804 C49.31685425 187.0676593 50.3410144 187.07603821 51.39620972 187.08467102 C52.43197144 187.08918274 53.46773315 187.09369446 54.53488159 187.0983429 C57.09284892 187.11013076 59.65078657 187.1280662 62.20870972 187.14717102 C61.87870972 182.52717102 61.54870972 177.90717102 61.20870972 173.14717102 C58.00776611 173.13315247 58.00776611 173.13315247 54.74215698 173.11885071 C47.66530356 173.08497518 40.5887385 173.02936794 33.51211643 172.96326828 C29.22452399 172.92387918 24.93713428 172.89164899 20.64938354 172.87617493 C16.50588983 172.86095147 12.36295381 172.82640641 8.2197094 172.778862 C6.64465133 172.76410651 5.06951362 172.75613337 3.49438667 172.75528717 C-7.67360817 172.74326113 -16.64896121 171.75893922 -25.22097778 163.92451477 C-30.40293194 158.05936765 -32.90221842 151.69301723 -32.9384613 143.94326782 C-32.94561661 142.89059219 -32.95277191 141.83791656 -32.96014404 140.75334167 C-32.96283295 139.60366913 -32.96552185 138.45399658 -32.96829224 137.26948547 C-32.97486343 136.05440811 -32.98143463 134.83933075 -32.98820496 133.58743286 C-33.00793362 129.56177014 -33.01960407 125.53614725 -33.02957153 121.51045227 C-33.0336211 120.12135995 -33.03773808 118.73226782 -33.04192162 117.34317589 C-33.06096426 110.81473956 -33.07519625 104.28631446 -33.08353359 97.75785571 C-33.09329766 90.23759546 -33.11959905 82.7176302 -33.16003448 75.19747382 C-33.19026136 69.37479293 -33.20500873 63.55219627 -33.2083146 57.72943848 C-33.21065793 54.25654789 -33.21952379 50.78397275 -33.24477577 47.31116676 C-33.27253257 43.43129315 -33.26820528 39.5518031 -33.26126099 35.67182922 C-33.27407104 34.53227783 -33.2868811 33.39272644 -33.30007935 32.21864319 C-33.23620816 22.40614877 -30.54368274 15.16349348 -23.85379028 7.94013977 C-16.83952297 1.84250966 -9.07106176 0.0323616 0 0 Z M-6.79129028 28.14717102 C-7.24058795 30.29442405 -7.24058795 30.29442405 -7.15878296 32.82272339 C-7.16435211 33.80848358 -7.16992126 34.79424377 -7.17565918 35.80987549 C-7.1664444 36.8951503 -7.15722961 37.98042511 -7.1477356 39.09858704 C-7.14977997 40.23844055 -7.15182434 41.37829407 -7.15393066 42.5526886 C-7.15694873 46.33564584 -7.13843152 50.11817155 -7.11941528 53.90107727 C-7.11635959 56.51899101 -7.11448203 59.13690636 -7.11373901 61.75482178 C-7.11004444 67.2469087 -7.09506665 72.73887079 -7.07254028 78.23091125 C-7.04365186 85.28860573 -7.03331616 92.3461997 -7.02885818 99.40394688 C-7.02531033 104.81093499 -7.01490024 110.21790045 -7.00298309 115.62487602 C-6.99726583 118.22813159 -6.99251198 120.83138944 -6.98871613 123.43464851 C-6.98187928 127.0648565 -6.96825955 130.69497109 -6.9524231 134.32514954 C-6.95130524 135.41244858 -6.95018738 136.49974762 -6.94903564 137.61999512 C-6.9433255 138.60293549 -6.93761536 139.58587585 -6.93173218 140.59860229 C-6.92875751 141.4578811 -6.92578285 142.3171599 -6.92271805 143.20247746 C-7.00510426 145.15262971 -7.00510426 145.15262971 -5.79129028 146.14717102 C-3.70532081 146.24621788 -1.61593794 146.27349437 0.47238159 146.27415466 C1.13406593 146.27571465 1.79575027 146.27727464 2.47748566 146.27888191 C4.71083251 146.28289373 6.94411227 146.27970158 9.17745972 146.27656555 C10.77202393 146.27791951 12.36658782 146.27969941 13.96115112 146.28187561 C18.3040035 146.28645057 22.64683224 146.28466013 26.98968506 146.28149652 C31.52428249 146.27897324 36.05887783 146.28131037 40.59347534 146.28288269 C48.21001552 146.28470448 55.82654601 146.28229783 63.44308472 146.27754211 C72.2618716 146.27209948 81.08063537 146.27386213 89.89942169 146.27936852 C97.45693409 146.28389938 105.01443951 146.28455033 112.57195282 146.28192985 C117.09190754 146.28036693 121.61185139 146.28017372 126.13180542 146.28346634 C130.38016854 146.28634467 134.62850171 146.28437007 138.87686157 146.27857208 C140.44062246 146.27724428 142.00438584 146.27763894 143.56814575 146.27983475 C145.69381104 146.28254547 147.81937885 146.27916613 149.94503784 146.27415466 C151.13746094 146.27377764 152.32988403 146.27340061 153.55844116 146.27301216 C156.13145768 146.44868094 156.13145768 146.44868094 157.20870972 145.14717102 C157.31099351 143.63371128 157.34390038 142.11550532 157.34915161 140.59860229 C157.35486176 139.61566193 157.3605719 138.63272156 157.36645508 137.61999512 C157.36757294 136.53269608 157.3686908 135.44539703 157.36984253 134.32514954 C157.37480743 133.18704834 157.37977234 132.04894714 157.3848877 130.87635803 C157.39955223 127.09292508 157.40631799 123.30953403 157.41183472 119.52607727 C157.41758205 116.9091288 157.42333983 114.29218036 157.42910767 111.67523193 C157.43868537 106.88461933 157.44457845 102.09401585 157.44760442 97.30339485 C157.4520879 90.24322741 157.469647 83.18325332 157.49860501 76.12314469 C157.52278658 70.0165122 157.53054678 63.90995983 157.53227997 57.80328178 C157.5353176 55.20084009 157.54338313 52.59839943 157.55646515 49.99598885 C157.57342408 46.36337045 157.57167032 42.73122839 157.56515503 39.09858704 C157.5789772 37.47067482 157.5789772 37.47067482 157.59307861 35.80987549 C157.58750946 34.8241153 157.58194031 33.8383551 157.57620239 32.82272339 C157.57766895 31.96306756 157.57913551 31.10341173 157.58064651 30.21770573 C157.3965378 29.19279105 157.3965378 29.19279105 157.20870972 28.14717102 C153.63914228 25.7674594 152.10711809 25.89596175 147.86984253 25.89320374 C147.22419468 25.89008375 146.57854683 25.88696377 145.91333389 25.88374925 C143.74607512 25.87576072 141.57909567 25.88209607 139.41183472 25.88838196 C137.85962764 25.88567247 136.30742185 25.88211178 134.75521851 25.87776184 C130.53628904 25.86863053 126.31745721 25.87218514 122.098526 25.87852001 C117.68766004 25.88357617 113.27680256 25.87888963 108.86593628 25.87574768 C101.45804338 25.87210691 94.05019032 25.87691003 86.64230347 25.88642883 C78.07229036 25.8973136 69.5023724 25.8937881 60.9323616 25.88277602 C53.58028981 25.8737063 46.22824669 25.87241633 38.87617111 25.87765336 C34.48248484 25.8807748 30.08884333 25.88117765 25.69515991 25.87458038 C21.56492142 25.86881212 17.43480587 25.87279425 13.30458069 25.8843689 C11.78681136 25.88701827 10.26903173 25.88624567 8.75126648 25.88184357 C6.68322925 25.87639751 4.61558869 25.88321043 2.5475769 25.89320374 C1.38909241 25.89395779 0.23060791 25.89471184 -0.96298218 25.89548874 C-3.99608466 25.93792459 -3.99608466 25.93792459 -6.79129028 28.14717102 Z " fill="#A3FAFE" transform="translate(174.79129028320313,24.852828979492188)"/>
<path d="M0 0 C0.69450064 -0.00367669 1.38900127 -0.00735338 2.10454738 -0.01114148 C4.43737132 -0.02217573 6.7701507 -0.02602174 9.10299683 -0.02983093 C10.77354575 -0.03609589 12.44409328 -0.04274272 14.11463928 -0.04974365 C19.60667958 -0.07078638 25.09872016 -0.08114769 30.59078979 -0.09111023 C32.48228851 -0.095158 34.37378708 -0.09927493 36.26528549 -0.10346031 C45.15372325 -0.12251412 54.0421527 -0.13674356 62.93060696 -0.14507228 C73.18455629 -0.15483942 83.43828945 -0.18114448 93.69216263 -0.22157317 C101.62096244 -0.25175952 109.54970037 -0.26654363 117.47855651 -0.26985329 C122.21233514 -0.27220133 126.94588288 -0.28112933 131.67959976 -0.30631447 C136.1365926 -0.32964365 140.59320334 -0.33380901 145.05024147 -0.32355309 C146.6816097 -0.32305876 148.31299705 -0.32934879 149.94430733 -0.34310913 C161.68887507 -0.43659225 170.49582358 0.83808485 179.41500854 9.08076477 C184.62139185 15.08114989 187.32166246 22.278429 187.34841919 30.15452576 C187.35412933 31.16368546 187.35983948 32.17284515 187.36572266 33.21258545 C187.36739944 34.86460716 187.36739944 34.86460716 187.36911011 36.55000305 C187.37407501 37.71470627 187.37903992 38.87940948 187.38415527 40.07940674 C187.39877603 43.93793832 187.40557959 47.79642877 187.41110229 51.65498352 C187.41540072 53.65992548 187.41969969 55.66486744 187.4240768 57.66980922 C187.4358843 63.25898633 187.44342353 68.8481535 187.446872 74.43734181 C187.45134507 81.64624901 187.46885954 88.85496588 187.49787259 96.06381524 C187.51955951 101.64787398 187.52958008 107.23187947 187.53091311 112.81597984 C187.53195661 116.14524137 187.53923299 119.47418223 187.55573273 122.80342484 C187.57285722 126.52508545 187.57089674 130.24628737 187.56442261 133.9679718 C187.57363739 135.05717422 187.58285217 136.14637665 187.59234619 137.26858521 C187.53198865 148.38905228 185.13267437 157.11130585 177.20797729 165.14717102 C167.66957175 173.11203105 156.0097394 172.42726527 144.23532104 172.34248352 C142.70118902 172.33874667 141.16705459 172.33590288 139.63291931 172.33390808 C135.62328332 172.32632444 131.61379554 172.30672217 127.60421753 172.28450012 C123.50145471 172.26392724 119.39866761 172.25488205 115.29586792 172.24482727 C107.26649593 172.2234705 99.23727221 172.18833228 91.20797729 172.14717102 C91.70297729 179.07717102 91.70297729 179.07717102 92.20797729 186.14717102 C93.78707886 186.14974915 95.36618042 186.15232727 96.99313354 186.15498352 C99.08560945 186.19251672 101.17805684 186.23166439 103.27047729 186.27217102 C104.30881714 186.2695929 105.34715698 186.26701477 106.41696167 186.26435852 C112.69534343 186.42380949 116.42627572 187.13960313 120.99874878 191.57246399 C123.43933108 194.75069049 123.55313185 198.18326321 123.48141479 202.08467102 C123.01290231 205.61859377 121.57001623 207.54287168 119.20797729 210.14717102 C114.35255823 212.62686993 110.78841784 213.52413157 105.2663269 213.53535461 C104.61169968 213.54061157 103.95707245 213.54586853 103.28260803 213.55128479 C101.14159532 213.56437458 99.0013399 213.55578789 96.86032104 213.54560852 C95.36012124 213.5476322 93.85992241 213.55054609 92.35972595 213.55430603 C89.22530696 213.55871422 86.09114551 213.55234634 82.95675659 213.5382843 C78.94975548 213.52117821 74.94335667 213.53105174 70.93637753 213.54900169 C67.84188844 213.55986784 64.74754102 213.55638053 61.65304756 213.54861832 C60.17593882 213.54662489 58.698817 213.54904532 57.22172356 213.55605698 C55.15421578 213.56372027 53.08766973 213.55200164 51.02023315 213.53535461 C49.84665756 213.53296783 48.67308197 213.53058105 47.46394348 213.52812195 C42.70590344 212.97142705 39.42182845 211.20130492 35.83297729 208.08467102 C33.45242279 203.78136095 33.43824381 199.95800529 34.20797729 195.14717102 C35.81124321 191.94063919 37.1038062 189.97529934 39.95797729 187.83467102 C48.27140037 185.29445841 56.69468595 186.42664506 65.20797729 187.14717102 C65.20797729 182.52717102 65.20797729 177.90717102 65.20797729 173.14717102 C62.15120728 173.12529724 62.15120728 173.12529724 59.03268433 173.10298157 C52.26719064 173.05243548 45.50192229 172.98580631 38.73665047 172.91145611 C34.63857144 172.86690455 30.54058835 172.82761588 26.44235229 172.80073547 C22.48046943 172.77454941 18.5189588 172.73404162 14.5573082 172.68398476 C13.05285175 172.66741871 11.54833107 172.655841 10.04379654 172.64955711 C-1.94664803 172.59445453 -12.85717851 171.98614779 -21.79202271 163.14717102 C-29.04997999 154.29246314 -30.09172483 146.39237981 -30.09841919 135.25190735 C-30.10674271 134.0704715 -30.11506622 132.88903564 -30.12364197 131.67179871 C-30.1435477 128.44627156 -30.1543717 125.22089414 -30.15946841 121.99531388 C-30.16312557 119.97416663 -30.16937267 117.95304367 -30.1764698 115.93190575 C-30.20093013 108.86359455 -30.21400816 101.79535634 -30.21755981 94.727005 C-30.22118941 88.16663149 -30.2510517 81.60672741 -30.2929644 75.04649717 C-30.32780842 69.39184681 -30.3431107 63.73735093 -30.34380585 58.0825941 C-30.34459411 54.71512011 -30.35553617 51.34850319 -30.38180351 47.98107338 C-30.40882681 44.21677578 -30.40385794 40.45375422 -30.39138794 36.68940735 C-30.40622223 35.59340714 -30.42105652 34.49740692 -30.43634033 33.36819458 C-30.34822283 23.9702067 -27.92234234 15.22378637 -21.47952271 8.14717102 C-15.19013567 2.50461372 -8.37022756 0.02869502 0 0 Z M-1.79202271 26.14717102 C-3.92277513 29.34329965 -4.04369215 30.14826988 -4.05271912 33.81562805 C-4.05980392 34.77463013 -4.06688873 35.7336322 -4.07418823 36.72169495 C-4.07171082 37.77218018 -4.0692334 38.82266541 -4.06668091 39.90498352 C-4.07179184 41.01250977 -4.07690277 42.12003601 -4.08216858 43.26112366 C-4.09609831 46.93152735 -4.0951054 50.601744 -4.09280396 54.27217102 C-4.09668869 56.81660533 -4.1010229 59.36103899 -4.10578918 61.9054718 C-4.11325845 67.24192168 -4.11309253 72.57830251 -4.10769653 77.91474915 C-4.10165303 84.08542939 -4.11397684 90.25588183 -4.1352666 96.42652321 C-4.15499028 102.3612295 -4.15805842 108.29586502 -4.15453148 114.23060608 C-4.15504617 116.75685664 -4.16031134 119.28311073 -4.1703434 121.80934143 C-4.1826307 125.33619428 -4.17596246 128.86251469 -4.16433716 132.38935852 C-4.17580276 133.96508636 -4.17580276 133.96508636 -4.1875 135.57264709 C-4.18048569 136.53164917 -4.17347137 137.49065125 -4.16624451 138.47871399 C-4.16641225 139.31272736 -4.16657999 140.14674072 -4.16675282 141.00602722 C-3.92615483 143.18552985 -3.92615483 143.18552985 -2.66760635 144.91598129 C0.10000589 146.73272552 2.29808081 146.518802 5.59153748 146.5146637 C6.24197444 146.51793254 6.89241141 146.52120138 7.56255859 146.52456927 C9.74611443 146.53186308 11.92900325 146.5176812 14.11251831 146.50361633 C15.67619949 146.50440702 17.23988047 146.5065037 18.80355835 146.5098114 C23.05347292 146.51495189 27.30314596 146.50139763 31.55302167 146.4842844 C35.9950434 146.46926798 40.43706175 146.47042291 44.87910461 146.46961975 C52.33829888 146.46592552 59.79740122 146.4509497 67.25656128 146.42842102 C76.83974391 146.39953674 86.42285252 146.38919711 96.00607395 146.38473892 C104.23447985 146.38076259 112.46286958 146.36826061 120.69126391 146.35439205 C123.34152931 146.35028883 125.99179414 146.34736537 128.64206123 146.34459686 C132.8010008 146.33971138 136.95989526 146.3295207 141.11881256 146.31515884 C142.64828776 146.31062795 144.17776904 146.30779532 145.7072506 146.30675125 C147.78867963 146.30501121 149.86999497 146.2971434 151.95140076 146.28761292 C153.11818139 146.28463825 154.28496202 146.28166359 155.48709965 146.27859879 C158.17414388 146.33222905 158.17414388 146.33222905 160.20797729 145.14717102 C160.23130683 129.77915653 160.24895674 114.41114286 160.25978947 99.04311466 C160.26495231 91.90795361 160.27199478 84.77280354 160.28341675 77.63764954 C160.29442405 70.75827365 160.30025347 63.87890921 160.30285454 56.99952507 C160.30470935 54.36835487 160.30833102 51.73718533 160.31370735 49.10601997 C160.32091365 45.43490852 160.32196841 41.76384499 160.32150269 38.09272766 C160.32509796 36.99293579 160.32869324 35.89314392 160.33239746 34.76002502 C160.33033546 33.26865776 160.33033546 33.26865776 160.32823181 31.74716187 C160.3291536 30.87791108 160.3300754 30.0086603 160.33102512 29.11306858 C160.42538986 27.14406574 160.42538986 27.14406574 159.20797729 26.14717102 C157.13703638 26.04375391 155.06251335 26.01193969 152.98899841 26.00672913 C152.33210319 26.003758 151.67520797 26.00078688 150.99840683 25.99772573 C148.78122301 25.98900363 146.56409296 25.98752754 144.34689331 25.98603821 C142.76380293 25.98141256 141.18071368 25.97638824 139.59762573 25.97099304 C135.28570514 25.95784369 130.97380013 25.9514193 126.66186261 25.94698238 C123.97113092 25.94405608 121.28040353 25.93995215 118.589674 25.93547821 C110.18018187 25.92179735 101.77069954 25.91213326 93.36119705 25.90827632 C83.63638871 25.90379226 73.91172069 25.88623073 64.18695503 25.85727572 C56.6812303 25.8356994 49.17554517 25.82557423 41.66978973 25.8242352 C37.1816103 25.82318436 32.69356266 25.8172177 28.20541573 25.79941559 C23.98571723 25.7830044 19.76625059 25.78074526 15.54653168 25.7895546 C13.99447194 25.79032869 12.44240008 25.78593359 10.89037132 25.77609634 C8.77794667 25.76348831 6.66635717 25.76919144 4.55393982 25.77967834 C3.36981286 25.77821178 2.1856859 25.77674522 0.96567631 25.77523422 C0.05563563 25.89797337 -0.85440504 26.02071251 -1.79202271 26.14717102 Z " fill="#A5FAFE" transform="translate(38.792022705078125,261.8528289794922)"/>
<path d="M0 0 C0.69706391 -0.00453111 1.39412782 -0.00906223 2.11231488 -0.01373065 C4.43588147 -0.02633802 6.75921256 -0.02475668 9.08280945 -0.02310181 C10.75380249 -0.02908937 12.42479276 -0.03589544 14.09577942 -0.04345703 C18.62689049 -0.06110142 23.15792598 -0.06581176 27.68906808 -0.0670886 C30.5224379 -0.06851168 33.3557886 -0.07278426 36.18915367 -0.07808304 C46.08096407 -0.09657839 55.97272061 -0.1047543 65.86454773 -0.10317993 C75.07361138 -0.10197878 84.28244056 -0.12307731 93.49144489 -0.15466726 C101.40757576 -0.18085096 109.32363015 -0.19154634 117.23980397 -0.19026911 C121.96346388 -0.18976008 126.68691537 -0.19541066 131.410532 -0.21662521 C135.8552713 -0.23604284 140.29960411 -0.2361081 144.74435806 -0.22159195 C146.37088429 -0.21950709 147.99743619 -0.22418544 149.62391853 -0.23631287 C161.34569054 -0.31801684 170.15976467 0.967323 179.054245 9.20492554 C184.59563835 15.57933881 186.95906129 23.01979899 186.98765564 31.35707092 C186.99336578 32.35919113 186.99907593 33.36131134 187.00495911 34.39379883 C187.00663589 36.02640152 187.00663589 36.02640152 187.00834656 37.69198608 C187.01331146 38.84708176 187.01827637 40.00217743 187.02339172 41.192276 C187.03799386 45.01290484 187.04481252 48.83349213 187.05033875 52.65414429 C187.05463764 54.64113601 187.05893708 56.62812773 187.06331325 58.61511928 C187.07511399 64.15250777 187.08265777 69.68988626 187.08610845 75.22728604 C187.09058322 82.36713332 187.10810837 89.5067886 187.13710904 96.64657754 C187.15879621 102.17970148 187.1688165 107.71277169 187.17014956 113.24593765 C187.17119281 116.54385745 187.17846593 119.8415565 187.19496918 123.13944054 C187.21209469 126.82507082 187.21013309 130.51023799 187.20365906 134.19589233 C187.21287384 135.27417297 187.22208862 136.35245361 187.23158264 137.46340942 C187.17081954 148.55102754 184.74570561 157.25813318 176.84721375 165.26742554 C167.36578662 173.18470684 155.80160722 172.54832427 144.0933075 172.46273804 C142.58159575 172.45900105 141.06988155 172.45615732 139.5581665 172.4541626 C135.60771321 172.44658007 131.65741042 172.4269788 127.70701599 172.40475464 C123.66457657 172.38417932 119.62211248 172.37513606 115.57963562 172.36508179 C107.66875206 172.34372698 99.75801905 172.30858972 91.84721375 172.26742554 C91.84721375 177.21742554 91.84721375 182.16742554 91.84721375 187.26742554 C93.16721375 186.93742554 94.48721375 186.60742554 95.84721375 186.26742554 C98.97787199 186.14058554 102.09332779 186.31422106 105.22221375 186.45492554 C106.06010437 186.47361694 106.897995 186.49230835 107.76127625 186.51156616 C113.19312813 186.75497462 116.6028545 187.56839418 120.84721375 191.26742554 C123.58697478 195.27412809 123.4980582 199.58134548 122.84721375 204.26742554 C120.42345618 209.30138355 117.93176462 211.15716991 112.84721375 213.26742554 C109.59124756 213.64837646 109.59124756 213.64837646 106.03495789 213.65560913 C105.05564552 213.66349457 105.05564552 213.66349457 104.05654907 213.67153931 C101.91490705 213.68465968 99.77401857 213.67602929 97.63237 213.66586304 C96.13313658 213.66788632 94.63390413 213.67079988 93.13467407 213.67456055 C89.99847508 213.67897331 86.86253315 213.67258783 83.72636414 213.65853882 C79.72055328 213.6414621 75.71534618 213.65128475 71.70955753 213.66925621 C68.61502597 213.68013524 65.52063577 213.67662867 62.42609978 213.66887283 C60.94981755 213.66688142 59.47352221 213.66929265 57.99725533 213.67631149 C55.92744961 213.6839928 53.85859931 213.67223006 51.78886414 213.65560913 C50.61449295 213.65322235 49.44012177 213.65083557 48.23016357 213.64837646 C42.97771981 213.05690351 39.08413694 211.59949667 35.40971375 207.64242554 C33.41345361 203.33050364 33.01120974 199.94068795 33.84721375 195.26742554 C35.93188368 191.17253817 37.60775937 188.96791886 41.84721375 187.26742554 C44.10551453 186.96444702 44.10551453 186.96444702 46.54252625 186.88851929 C47.42295593 186.85435913 48.30338562 186.82019897 49.210495 186.78500366 C50.12186218 186.75857788 51.03322937 186.7321521 51.97221375 186.70492554 C53.78745321 186.64509647 55.60257303 186.58148009 57.41752625 186.51351929 C58.21948425 186.48959106 59.02144226 186.46566284 59.84770203 186.44100952 C61.91930458 186.38478876 61.91930458 186.38478876 63.84721375 185.26742554 C64.27761598 182.97794296 64.27761598 182.97794296 64.40971375 180.32992554 C64.7534114 175.45503023 64.7534114 175.45503023 65.84721375 173.26742554 C64.99245453 173.2615593 64.13769531 173.25569305 63.2570343 173.24964905 C55.16609 173.19152802 47.07541608 173.11934145 38.98473549 173.03171062 C34.826122 172.9871549 30.66760314 172.94786708 26.50883484 172.92098999 C22.48860007 172.89480817 18.46873241 172.85430319 14.44872665 172.80423927 C12.92194085 172.78767041 11.39509169 172.77609443 9.86822891 172.76981163 C-3.10863 172.71105697 -13.57777575 171.70997542 -23.15278625 162.26742554 C-30.18894012 153.84120225 -30.45224213 143.96917174 -30.4433136 133.40463257 C-30.45003082 132.25055908 -30.45674805 131.0964856 -30.46366882 129.90744019 C-30.48258091 126.11332835 -30.4865694 122.319394 -30.48872375 118.52523804 C-30.49352818 116.54484099 -30.49833656 114.56444391 -30.50364459 112.58404815 C-30.51987581 106.36374817 -30.52481828 100.14350599 -30.52339172 93.92318726 C-30.5221907 87.53322638 -30.54329668 81.14360345 -30.57487905 74.75372803 C-30.60113499 69.24257628 -30.61175518 63.73153431 -30.6104809 58.22032058 C-30.60997411 54.93970196 -30.61737662 51.65944963 -30.63683701 48.37887955 C-30.65653792 44.7153071 -30.65064215 41.0525953 -30.6386261 37.38900757 C-30.64986511 36.32060638 -30.66110413 35.2522052 -30.67268372 34.15142822 C-30.58820176 23.96187037 -28.09675354 15.37571445 -20.945755 7.91976929 C-14.60435006 2.07572944 -8.53224319 0.02299211 0 0 Z M-3.03032207 27.49945641 C-4.48004618 29.78288559 -4.53007504 31.23555565 -4.53373718 33.93588257 C-4.54219666 34.89488464 -4.55065613 35.85388672 -4.55937195 36.84194946 C-4.55329926 37.89243469 -4.54722656 38.94291992 -4.54096985 40.02523804 C-4.54622681 41.13276428 -4.55148376 42.24029053 -4.55690002 43.38137817 C-4.57013199 47.05186966 -4.56135032 50.72192944 -4.55122375 54.39242554 C-4.55324356 56.93685998 -4.55615422 59.48129386 -4.55992126 62.02572632 C-4.56434897 67.36221351 -4.55818415 72.69854518 -4.54389954 78.03500366 C-4.52757265 84.20569654 -4.53286108 90.37609206 -4.54937875 96.54677773 C-4.56462928 102.48149723 -4.56301996 108.41612428 -4.55423355 114.3508606 C-4.55222818 116.87710613 -4.55470256 119.40335923 -4.56167221 121.92959595 C-4.56926646 125.45647465 -4.55771024 128.98277738 -4.54096985 132.50961304 C-4.54704254 133.56009827 -4.55311523 134.6105835 -4.55937195 135.69290161 C-4.55091248 136.65190369 -4.542453 137.61090576 -4.53373718 138.59896851 C-4.53260611 139.43298187 -4.53147503 140.26699524 -4.53030968 141.12628174 C-4.28670305 143.30570526 -4.28670305 143.30570526 -3.02752876 145.03539467 C-0.26366109 146.85173492 1.93362685 146.64518421 5.2240448 146.64837646 C5.8737762 146.65305644 6.5235076 146.65773641 7.19292784 146.6625582 C9.37412027 146.6745421 11.55468832 146.66503828 13.73588562 146.65560913 C15.29794685 146.65967335 16.86000521 146.66501438 18.42205811 146.67153931 C22.6678857 146.68523666 26.91349505 146.67990435 31.15932655 146.67040205 C35.59822309 146.66281795 40.03710067 146.66984758 44.47599792 146.67456055 C51.93098819 146.68002175 59.38588935 146.67281694 66.84086609 146.65853882 C75.46545092 146.64221159 84.089823 146.64749984 92.71440268 146.66401803 C100.11319347 146.67762253 107.51192014 146.67955765 114.91071939 146.67170203 C119.33237096 146.66701979 123.75392245 146.66641572 128.17556763 146.67631149 C132.33212707 146.68496384 136.48841165 146.67899116 140.64494133 146.66162872 C142.17238343 146.65765458 143.69984857 146.65881374 145.22728157 146.66541672 C147.30862984 146.67358614 149.3890913 146.66336787 151.47038269 146.64837646 C152.63624153 146.64724539 153.80210037 146.64611431 155.00328827 146.64494896 C157.81829952 146.48077101 157.81829952 146.48077101 159.72237682 145.03539467 C161.17592101 142.75077794 161.22197923 141.3021484 161.22143555 138.59896851 C161.22844986 137.63996643 161.23546417 136.68096436 161.24269104 135.69290161 C161.2350473 134.64241638 161.22740356 133.59193115 161.2195282 132.50961304 C161.22317886 131.40208679 161.22682953 130.29456055 161.23059082 129.1534729 C161.23871407 125.48296906 161.22507104 121.81290422 161.210495 118.14242554 C161.2099766 115.59799195 161.21049349 113.05355795 161.21200562 110.50912476 C161.21191581 105.17263328 161.20180704 99.83629664 161.18339539 94.49984741 C161.16222759 88.32920368 161.15871782 82.15874604 161.16495734 75.98807335 C161.17065117 70.05335851 161.16490083 64.11869978 161.1537838 58.18399048 C161.14992684 55.65774805 161.14878563 53.1315 161.15036964 50.60525513 C161.15073933 47.07847326 161.13814689 43.55197711 161.12187195 40.02523804 C161.12434937 38.97475281 161.12682678 37.92426758 161.12937927 36.84194946 C161.12229446 35.88294739 161.11520966 34.92394531 161.10791016 33.93588257 C161.10585729 33.1018692 161.10380442 32.26785583 161.10168934 31.40856934 C160.9756347 28.96971298 160.9756347 28.96971298 158.84721375 26.26742554 C155.98367689 25.8093026 155.98367689 25.8093026 152.55267334 25.88647461 C151.57323254 25.87945465 151.57323254 25.87945465 150.57400507 25.87229288 C148.3758897 25.86028252 146.17839089 25.86982309 143.98027039 25.87924194 C142.40850458 25.87517886 140.83674163 25.86983847 139.26498413 25.86331177 C134.9881072 25.8495998 130.71144664 25.85495301 126.43456578 25.86444902 C121.9649669 25.87202694 117.49538694 25.8650051 113.02578735 25.86029053 C105.51774254 25.85482694 98.00978616 25.86203977 90.50175476 25.87631226 C81.81527523 25.89263401 73.12900699 25.88735617 64.4425326 25.87083304 C56.9928071 25.85722822 49.54314529 25.85529376 42.09341139 25.86314905 C37.64044604 25.86783187 33.18758005 25.86843387 28.73462105 25.85853958 C24.54770689 25.84988697 20.3610656 25.85586041 16.17418098 25.87322235 C14.6354518 25.87719661 13.09669974 25.87603714 11.55797958 25.86943436 C9.46125337 25.86126525 7.36540754 25.87148294 5.26873779 25.88647461 C3.50693979 25.88817122 3.50693979 25.88817122 1.7095499 25.88990211 C-1.1215454 26.05237522 -1.1215454 26.05237522 -3.03032207 27.49945641 Z " fill="#A4FAFD" transform="translate(304.1527862548828,261.7325744628906)"/>
<path d="M0 0 C1.29854919 -0.00960754 2.59709839 -0.01921509 3.93499756 -0.02911377 C5.35542627 -0.03396267 6.77585703 -0.03824127 8.19628906 -0.04199219 C9.65496827 -0.04774698 11.11364747 -0.05350467 12.57232666 -0.05926514 C15.63220572 -0.06976903 18.69205857 -0.07561526 21.75195312 -0.07910156 C25.66026754 -0.08457596 29.56823176 -0.10858362 33.47643661 -0.13707352 C36.49115995 -0.15576189 39.50580012 -0.16090884 42.52057648 -0.16243744 C43.96059324 -0.16545204 45.40060896 -0.17344009 46.84056854 -0.18662262 C61.44829004 -0.3107748 61.44829004 -0.3107748 66.71191406 3.16113281 C71.98357177 8.8014778 71.27740492 14.92617753 71.22949219 22.32324219 C71.23491729 23.66413634 71.24204213 25.00502452 71.25073242 26.34590149 C71.26892301 29.97614806 71.26191625 33.60593845 71.24921608 37.2361927 C71.23906612 41.04105962 71.24848729 44.84588833 71.25476074 48.65075684 C71.26203137 55.0395405 71.25246492 61.428139 71.23339844 67.81689453 C71.21163066 75.19585493 71.21868246 82.5743732 71.24070406 89.95332289 C71.25887485 96.29662333 71.26140823 102.63979093 71.25094938 108.983109 C71.24472362 112.76824722 71.24385336 116.55317785 71.25709534 120.33830261 C71.26867787 123.89749463 71.26058521 127.45611842 71.23751831 131.01524925 C71.22973431 132.93917949 71.24156668 134.86315797 71.25402832 136.7870636 C71.19147113 143.17803438 71.12595581 147.35708309 66.71191406 152.16113281 C63.15008586 155.12932298 60.13824299 155.63208932 55.63769531 155.45410156 C51.49300589 154.82357072 48.34212592 152.31738704 45.71191406 149.16113281 C44.73715644 146.23685995 44.57616869 144.32936773 44.55369568 141.28266907 C44.54390686 140.27726074 44.53411804 139.27185242 44.52403259 138.23597717 C44.5153994 136.58304909 44.5153994 136.58304909 44.5065918 134.89672852 C44.4966922 133.73561554 44.4867926 132.57450256 44.47659302 131.37820435 C44.44494505 127.5311285 44.42020746 123.68404029 44.39550781 119.83691406 C44.37494113 117.17318798 44.35399269 114.50946766 44.33253479 111.8457489 C44.28262116 105.54537314 44.23767741 99.24497209 44.19451243 92.94454688 C44.14512868 85.77166963 44.09021477 78.59883806 44.03483284 71.42600501 C43.92103321 56.67109095 43.81418977 41.91613136 43.71191406 27.16113281 C43.07377777 27.15748718 42.43564148 27.15384155 41.77816772 27.15008545 C35.12664584 27.10822267 28.47581154 27.03885005 21.82470703 26.95361328 C19.34365725 26.92541585 16.86251784 26.90419527 14.38134766 26.89013672 C10.81138259 26.86869119 7.24249379 26.82202939 3.67285156 26.77050781 C2.56638275 26.76927917 1.45991394 26.76805054 0.31991577 26.76678467 C-5.83119435 26.65022842 -9.622389 26.31449114 -14.28808594 22.16113281 C-16.4631393 19.07980722 -17.33351737 15.8057506 -17.22949219 12.04003906 C-16.52156068 8.17925797 -15.32338684 5.8099696 -12.35058594 3.22363281 C-8.0194022 0.30671315 -5.11663729 0.03051995 0 0 Z " fill="#A2FAFD" transform="translate(393.2880859375,82.8388671875)"/>
<path d="M0 0 C0.65564941 -0.0049649 1.31129883 -0.00992981 1.98681641 -0.01504517 C4.15414482 -0.02964072 6.32140006 -0.03646425 8.48876953 -0.04199219 C9.9970805 -0.04774561 11.50539145 -0.05350332 13.01370239 -0.05926514 C16.17613058 -0.06976758 19.33853339 -0.07561525 22.50097656 -0.07910156 C26.54848652 -0.08458599 30.59566004 -0.10861582 34.6430645 -0.13707352 C37.7589312 -0.15571866 40.87471714 -0.16090648 43.99063492 -0.16243744 C45.48254359 -0.16546006 46.97445097 -0.17347547 48.46630478 -0.18662262 C50.55592032 -0.20372377 52.64471741 -0.20179359 54.734375 -0.1953125 C56.51616653 -0.20078094 56.51616653 -0.20078094 58.33395386 -0.20635986 C62.89434142 0.32355037 65.44510474 2.22332874 68.80908203 5.22363281 C71.27377218 9.51401937 71.14193118 13.32499783 70.49658203 18.16113281 C69.19530677 21.55890711 68.11496181 22.74678922 65.11328125 24.75805664 C59.98321782 26.74823313 55.21321143 26.64069078 49.75439453 26.67285156 C48.63088593 26.69080276 47.50737732 26.70875397 46.349823 26.72724915 C42.77378044 26.78127895 39.19787084 26.81522528 35.62158203 26.84863281 C33.19187607 26.88181225 30.76218762 26.91630249 28.33251953 26.95214844 C22.38732625 27.03700135 16.44211561 27.10538237 10.49658203 27.16113281 C10.49714757 28.0791258 10.49714757 28.0791258 10.49772453 29.0156641 C10.50484881 43.92280791 10.47887995 58.82961992 10.41630363 73.736619 C10.38683552 80.94566461 10.36847356 88.15441594 10.37646484 95.36352539 C10.38340358 101.64872568 10.36929217 107.93347035 10.33014596 114.21855873 C10.31015524 117.54514768 10.30368222 120.87086321 10.31615829 124.19751167 C10.32831632 127.91599833 10.30327119 131.63251579 10.26953125 135.35083008 C10.28175217 136.44775177 10.29397308 137.54467346 10.30656433 138.67483521 C10.20539711 144.86382961 9.44216967 148.44091453 5.07487679 152.94743252 C1.89538543 155.39244451 -1.53628139 155.50307533 -5.44091797 155.43847656 C-8.9284587 154.96950802 -10.90753287 153.45517081 -13.50341797 151.16113281 C-17.59443239 145.34388819 -16.9252364 139.00270863 -16.89160156 132.18261719 C-16.89685852 130.87464676 -16.90211548 129.56667633 -16.90753174 128.21907043 C-16.92117301 124.64260528 -16.91592003 121.06640064 -16.90639448 117.48993111 C-16.89878128 113.74112387 -16.9058481 109.99233842 -16.91055298 106.24353027 C-16.91600571 99.94893402 -16.90883164 93.65444348 -16.89453125 87.35986328 C-16.8782056 80.09003079 -16.88349445 72.82045074 -16.90001047 65.55062437 C-16.91363914 59.30075789 -16.91553826 53.05096726 -16.90769446 46.80109072 C-16.90302551 43.07187546 -16.90237157 39.34277873 -16.91230392 35.61357117 C-16.92260574 31.45544567 -16.9083137 27.29775307 -16.89160156 23.13964844 C-16.89767426 21.90829666 -16.90374695 20.67694489 -16.91000366 19.40827942 C-16.83207591 8.9482878 -16.83207591 8.9482878 -13.50341797 4.16113281 C-9.27562423 0.32969473 -5.56209423 0.03201463 0 0 Z " fill="#A2FBFE" transform="translate(52.50341796875,82.8388671875)"/>
<path d="M0 0 C1.00099183 -0.00128164 1.00099183 -0.00128164 2.02220571 -0.00258917 C4.26860473 -0.00424233 6.51492983 0.00127472 8.76132202 0.00672913 C10.36750792 0.00701106 11.97369394 0.00685314 13.57987976 0.00628662 C17.9494679 0.00599889 22.31902877 0.01189177 26.68861055 0.01886058 C31.25169519 0.02509807 35.81478041 0.02569823 40.37786865 0.02688599 C49.02284572 0.02999813 57.66781018 0.03820995 66.31278169 0.04823548 C76.15302607 0.05940023 85.99327104 0.06490798 95.83352017 0.06993091 C116.07948069 0.08039265 136.32542986 0.09798985 156.57138062 0.12025452 C156.57138062 0.78025452 156.57138062 1.44025452 156.57138062 2.12025452 C157.56138062 2.12025452 158.55138062 2.12025452 159.57138062 2.12025452 C159.59471 17.74903812 159.61235998 33.37781705 159.62319279 49.00661373 C159.62835566 56.262843 159.63539819 63.51906147 159.64682007 70.77528381 C159.65676717 77.09759308 159.6632341 83.41989453 159.66546911 89.7422114 C159.66677617 93.09182201 159.66986174 96.44141025 159.67711067 99.79101372 C159.68431682 103.52439097 159.68537174 107.2577211 159.68490601 110.99110413 C159.68850128 112.10959747 159.69209656 113.22809082 159.69580078 114.38047791 C159.69442612 115.39155106 159.69305145 116.40262421 159.69163513 117.44433594 C159.69301782 118.77033514 159.69301782 118.77033514 159.69442844 120.12312222 C159.57138062 122.12025452 159.57138062 122.12025452 158.57138062 123.12025452 C156.44966032 123.2193515 154.32457941 123.2465781 152.20054626 123.24723816 C151.52731683 123.24879815 150.8540874 123.25035814 150.16045707 123.2519654 C147.88798597 123.25597742 145.61558082 123.25278498 143.34310913 123.24964905 C141.72061117 123.25100301 140.09811352 123.25278292 138.47561646 123.25495911 C134.05625322 123.25953437 129.63691322 123.2577434 125.21754956 123.25458002 C120.60200768 123.25205647 115.98646786 123.25439398 111.3709259 123.25596619 C103.61734661 123.25778808 95.86377683 123.25538125 88.11019897 123.25062561 C79.13578992 123.24518487 70.16140359 123.2469442 61.18699509 123.25245202 C53.49443637 123.25698487 45.8018845 123.25763279 38.10932487 123.25501335 C33.5094137 123.25345128 28.90951323 123.25325486 24.30960274 123.25654984 C19.98490456 123.25943098 15.66023576 123.25744835 11.33554077 123.25165558 C9.74478644 123.25032921 8.15402965 123.25072002 6.56327629 123.25291824 C4.39854993 123.25563461 2.23391883 123.2522426 0.06919861 123.24723816 C-1.14442573 123.24686113 -2.35805006 123.24648411 -3.60845089 123.24609566 C-6.42861938 123.12025452 -6.42861938 123.12025452 -8.42861938 122.12025452 C-8.42861938 82.19025452 -8.42861938 42.26025452 -8.42861938 1.12025452 C-5.58186967 -0.30312034 -3.18394894 -0.00244543 0 0 Z M-6.42861938 3.12025452 C-6.87791706 5.26750755 -6.87791706 5.26750755 -6.79611206 7.79580688 C-6.80168121 8.78156708 -6.80725037 9.76732727 -6.81298828 10.78295898 C-6.8037735 11.8682338 -6.79455872 12.95350861 -6.7850647 14.07167053 C-6.78710907 15.21152405 -6.78915344 16.35137756 -6.79125977 17.52577209 C-6.79427783 21.30872934 -6.77576062 25.09125505 -6.75674438 28.87416077 C-6.75368869 31.4920745 -6.75181113 34.10998986 -6.75106812 36.72790527 C-6.74737354 42.2199922 -6.73239575 47.71195429 -6.70986938 53.20399475 C-6.68098096 60.26168923 -6.67064526 67.3192832 -6.66618729 74.37703037 C-6.66263944 79.78401848 -6.65222934 85.19098395 -6.64031219 90.59795952 C-6.63459493 93.20121508 -6.62984109 95.80447294 -6.62604523 98.40773201 C-6.61920839 102.03794 -6.60558865 105.66805459 -6.5897522 109.29823303 C-6.58863434 110.38553207 -6.58751648 111.47283112 -6.58636475 112.59307861 C-6.5806546 113.57601898 -6.57494446 114.55895935 -6.56906128 115.57168579 C-6.56608662 116.43096459 -6.56311195 117.2902434 -6.56004715 118.17556095 C-6.64243336 120.12571321 -6.64243336 120.12571321 -5.42861938 121.12025452 C-3.34264991 121.21930138 -1.25326704 121.24657787 0.83505249 121.24723816 C1.49673683 121.24879815 2.15842117 121.25035814 2.84015656 121.2519654 C5.07350341 121.25597723 7.30678316 121.25278507 9.54013062 121.24964905 C11.13469482 121.25100301 12.72925872 121.25278291 14.32382202 121.25495911 C18.6666744 121.25953406 23.00950314 121.25774363 27.35235596 121.25458002 C31.88695339 121.25205674 36.42154873 121.25439387 40.95614624 121.25596619 C48.57268641 121.25778798 56.18921691 121.25538133 63.80575562 121.25062561 C72.6245425 121.24518297 81.44330627 121.24694562 90.26209259 121.25245202 C97.81960499 121.25698288 105.3771104 121.25763383 112.93462372 121.25501335 C117.45457844 121.25345042 121.97452228 121.25325722 126.49447632 121.25654984 C130.74283943 121.25942816 134.99117261 121.25745357 139.23953247 121.25165558 C140.80329336 121.25032777 142.36705674 121.25072244 143.93081665 121.25291824 C146.05648194 121.25562896 148.18204975 121.25224962 150.30770874 121.24723816 C151.50013184 121.24686113 152.69255493 121.24648411 153.92111206 121.24609566 C156.49412858 121.42176444 156.49412858 121.42176444 157.57138062 120.12025452 C157.67366441 118.60679477 157.70657127 117.08858882 157.71182251 115.57168579 C157.71753265 114.58874542 157.7232428 113.60580505 157.72912598 112.59307861 C157.73024384 111.50577957 157.73136169 110.41848053 157.73251343 109.29823303 C157.73747833 108.16013184 157.74244324 107.02203064 157.74755859 105.84944153 C157.76222312 102.06600857 157.76898889 98.28261753 157.77450562 94.49916077 C157.78025295 91.8822123 157.78601073 89.26526385 157.79177856 86.64831543 C157.80135627 81.85770283 157.80724935 77.06709935 157.81027532 72.27647835 C157.8147588 65.21631091 157.8323179 58.15633681 157.86127591 51.09622818 C157.88545748 44.98959569 157.89321768 38.88304332 157.89495087 32.77636528 C157.8979885 30.17392359 157.90605403 27.57148293 157.91913605 24.96907234 C157.93609498 21.33645395 157.93434121 17.70431189 157.92782593 14.07167053 C157.9416481 12.44375832 157.9416481 12.44375832 157.95574951 10.78295898 C157.95018036 9.79719879 157.94461121 8.8114386 157.93887329 7.79580688 C157.94033985 6.93615106 157.94180641 6.07649523 157.94331741 5.19078922 C157.7592087 4.16587454 157.7592087 4.16587454 157.57138062 3.12025452 C154.00181318 0.74054289 152.46978899 0.86904525 148.23251343 0.86628723 C147.58686558 0.86316725 146.94121773 0.86004727 146.27600479 0.85683274 C144.10874602 0.84884422 141.94176657 0.85517956 139.77450562 0.86146545 C138.22229854 0.85875597 136.67009275 0.85519527 135.1178894 0.85084534 C130.89895994 0.84171403 126.68012811 0.84526863 122.4611969 0.85160351 C118.05033094 0.85665966 113.63947346 0.85197313 109.22860718 0.84883118 C101.82071427 0.84519041 94.41286122 0.84999353 87.00497437 0.85951233 C78.43496126 0.8703971 69.8650433 0.8668716 61.2950325 0.85585952 C53.94296071 0.84678979 46.59091759 0.84549982 39.23884201 0.85073686 C34.84515574 0.85385829 30.45151422 0.85426115 26.05783081 0.84766388 C21.92759232 0.84189562 17.79747677 0.84587774 13.66725159 0.85745239 C12.14948226 0.86010177 10.63170263 0.85932917 9.11393738 0.85492706 C7.04590015 0.849481 4.97825959 0.85629392 2.9102478 0.86628723 C1.75176331 0.86704128 0.59327881 0.86779533 -0.60031128 0.86857224 C-3.63341376 0.91100809 -3.63341376 0.91100809 -6.42861938 3.12025452 Z " fill="#D3F9FB" transform="translate(174.42861938476563,49.87974548339844)"/>
<path d="M0 0 C1.29854919 -0.00960754 2.59709839 -0.01921509 3.93499756 -0.02911377 C5.35542627 -0.03396267 6.77585703 -0.03824127 8.19628906 -0.04199219 C9.65496827 -0.04774698 11.11364747 -0.05350467 12.57232666 -0.05926514 C15.63220572 -0.06976903 18.69205857 -0.07561526 21.75195312 -0.07910156 C25.66026754 -0.08457596 29.56823176 -0.10858362 33.47643661 -0.13707352 C36.49115995 -0.15576189 39.50580012 -0.16090884 42.52057648 -0.16243744 C43.96059324 -0.16545204 45.40060896 -0.17344009 46.84056854 -0.18662262 C61.44829004 -0.3107748 61.44829004 -0.3107748 66.71191406 3.16113281 C71.9983044 8.80712313 71.26417533 14.94872392 71.19775391 22.35498047 C71.19990172 23.69911569 71.2037823 25.04324909 71.20925903 26.38737488 C71.21892602 30.02578612 71.20368399 33.66370422 71.18335295 37.30205584 C71.16574643 41.11317894 71.16930769 44.92428763 71.17007446 48.73544312 C71.16820349 55.13263165 71.15086506 61.52963003 71.12353516 67.92675781 C71.09205962 75.32156071 71.08154001 82.71615564 71.08300626 90.11102068 C71.08435725 97.98869708 71.07047737 105.86629337 71.05211306 113.7439456 C71.04785183 116.01255441 71.04643091 118.28115028 71.04563522 120.54976273 C71.04362566 124.1137407 71.03141059 127.67754423 71.01130295 131.24146461 C71.00267872 133.17292621 71.00379555 135.10442359 71.00518799 137.03590393 C70.99665802 138.18547073 70.98812805 139.33503754 70.9793396 140.5194397 C70.97598791 141.51824472 70.97263622 142.51704975 70.96918297 143.5461216 C70.70598626 146.22138598 70.07916589 147.8704433 68.71191406 150.16113281 C68.05191406 150.16113281 67.39191406 150.16113281 66.71191406 150.16113281 C66.87429502 149.45078038 67.03667599 148.74042795 67.20397758 148.00854969 C67.7162261 145.13696015 67.83775115 142.51704456 67.83889771 139.60246277 C67.84171753 138.49648239 67.84453735 137.39050201 67.84744263 136.25100708 C67.8454184 135.04725433 67.84339417 133.84350159 67.84130859 132.60327148 C67.84306091 131.32792038 67.84481323 130.05256927 67.84661865 128.73857117 C67.85117125 125.24669623 67.84941199 121.7548509 67.84623957 118.26297545 C67.84370312 114.60185528 67.84605724 110.94073759 67.84762573 107.27961731 C67.84944436 101.12870836 67.84704987 94.97781142 67.84228516 88.8269043 C67.83685038 81.72932412 67.83860072 74.6317727 67.84411156 67.53419322 C67.84866009 61.43040605 67.84928451 55.3266275 67.84667289 49.22283918 C67.84511875 45.58189092 67.84489248 41.94095615 67.84820938 38.30000877 C67.85165328 34.23571466 67.84686997 30.17146951 67.84130859 26.10717773 C67.84434494 24.31065765 67.84434494 24.31065765 67.84744263 22.47784424 C67.83259283 16.60896507 67.60648498 10.96391171 66.71191406 5.16113281 C65.90753906 5.01675781 65.10316406 4.87238281 64.27441406 4.72363281 C61.71191406 4.16113281 61.71191406 4.16113281 60.71191406 3.16113281 C58.68840487 3.05648399 56.6612121 3.02257258 54.63500977 3.01586914 C52.68211784 3.00629936 52.68211784 3.00629936 50.68977356 2.99653625 C49.25574785 2.99500707 47.82172165 2.99389338 46.38769531 2.99316406 C44.92376167 2.98995197 43.45982835 2.98658793 41.99589539 2.983078 C38.91986345 2.97707776 35.84385964 2.97523885 32.76782227 2.97583008 C28.83476804 2.97593137 24.9018957 2.96231755 20.96888447 2.94505787 C17.9413318 2.93390868 14.91382255 2.93191182 11.88625145 2.9324398 C10.43704798 2.93126261 8.98784328 2.92685548 7.53866005 2.91910744 C5.5043942 2.90925592 3.47007517 2.91346311 1.43579102 2.91821289 C0.27964798 2.91678787 -0.87649506 2.91536285 -2.06767273 2.91389465 C-5.47991838 3.17586021 -8.15021865 3.79955644 -11.28808594 5.16113281 C-13.25641534 9.09779161 -13.92293461 12.80788479 -13.28808594 17.16113281 C-11.45572546 20.08337313 -9.42181239 22.59426959 -6.28808594 24.16113281 C10.87191406 24.49113281 28.03191406 24.82113281 45.71191406 25.16113281 C45.71191406 65.09113281 45.71191406 105.02113281 45.71191406 146.16113281 C45.38191406 146.16113281 45.05191406 146.16113281 44.71191406 146.16113281 C44.38191406 106.89113281 44.05191406 67.62113281 43.71191406 27.16113281 C26.55191406 26.83113281 9.39191406 26.50113281 -8.28808594 26.16113281 C-15.33996534 21.45987988 -15.33996534 21.45987988 -16.94042969 16.31347656 C-17.5460003 12.56438213 -17.019046 9.53650493 -15.28808594 6.16113281 C-10.86923335 1.08949518 -6.50802487 0.03881936 0 0 Z " fill="#CAFAFC" transform="translate(393.2880859375,82.8388671875)"/>
<path d="M0 0 C0.65564941 -0.0049649 1.31129883 -0.00992981 1.98681641 -0.01504517 C4.15414482 -0.02964072 6.32140006 -0.03646425 8.48876953 -0.04199219 C9.9970805 -0.04774561 11.50539145 -0.05350332 13.01370239 -0.05926514 C16.17613058 -0.06976758 19.33853339 -0.07561525 22.50097656 -0.07910156 C26.54848652 -0.08458599 30.59566004 -0.10861582 34.6430645 -0.13707352 C37.7589312 -0.15571866 40.87471714 -0.16090648 43.99063492 -0.16243744 C45.48254359 -0.16546006 46.97445097 -0.17347547 48.46630478 -0.18662262 C50.55592032 -0.20372377 52.64471741 -0.20179359 54.734375 -0.1953125 C56.51616653 -0.20078094 56.51616653 -0.20078094 58.33395386 -0.20635986 C61.8232323 0.19908909 63.7025744 1.06846617 66.49658203 3.16113281 C66.99158203 4.15113281 66.99158203 4.15113281 67.49658203 5.16113281 C61.74658203 4.28613281 61.74658203 4.28613281 59.49658203 3.16113281 C57.49113841 3.05430829 55.48212619 3.0122713 53.47387695 3 C51.57631905 2.98558868 51.57631905 2.98558868 49.64042664 2.97088623 C48.25263651 2.96603795 46.8648443 2.96175919 45.47705078 2.95800781 C44.05699155 2.95225568 42.63693235 2.94649795 41.21687317 2.94073486 C38.23678221 2.93022356 35.25671823 2.92438204 32.27661133 2.92089844 C28.4633528 2.91541947 24.65045238 2.89140521 20.83730602 2.86292648 C17.90244008 2.84427314 14.96765984 2.83909304 12.03273964 2.83756256 C10.6273535 2.83454055 9.22196872 2.82652723 7.81664085 2.81337738 C5.84698967 2.79626579 3.87719076 2.80004933 1.9074707 2.8046875 C0.78765305 2.80104187 -0.33216461 2.79739624 -1.48591614 2.79364014 C-4.89979669 3.20940661 -6.70927742 4.20285361 -9.50341797 6.16113281 C-10.49341797 6.82113281 -11.48341797 7.48113281 -12.50341797 8.16113281 C-13.43944956 11.99412633 -13.62878633 15.7037175 -13.63040161 19.63677979 C-13.63322144 20.69917374 -13.63604126 21.76156769 -13.63894653 22.8561554 C-13.6369223 24.00641708 -13.63489807 25.15667877 -13.6328125 26.34179688 C-13.63456482 27.56531357 -13.63631714 28.78883026 -13.63812256 30.04942322 C-13.64176287 33.39469584 -13.6409185 36.7399064 -13.63774347 40.08517551 C-13.63520295 43.59721011 -13.63756233 47.10924215 -13.63912964 50.62127686 C-13.64094735 56.52242506 -13.63855646 62.42356073 -13.63378906 68.32470703 C-13.6283573 75.12632132 -13.6301028 81.92790558 -13.63561547 88.72951913 C-13.64017001 94.58537687 -13.64078542 100.44122563 -13.6381768 106.29708457 C-13.63662557 109.78717525 -13.63638818 113.27725187 -13.63971329 116.76734161 C-13.64316812 120.66586958 -13.63836416 124.56436462 -13.6328125 128.46289062 C-13.63483673 129.60505539 -13.63686096 130.74722015 -13.63894653 131.92399597 C-13.62194497 138.39749311 -13.2940448 144.7347263 -12.50341797 151.16113281 C-15.3521625 148.56010519 -16.42376443 146.65249007 -16.63484573 142.70040417 C-16.6378204 141.71542603 -16.64079506 140.7304479 -16.64385986 139.71562195 C-16.64957001 138.58425812 -16.65528015 137.45289429 -16.66116333 136.2872467 C-16.66228119 135.0451091 -16.66339905 133.8029715 -16.66455078 132.52319336 C-16.67199814 130.56189484 -16.67199814 130.56189484 -16.67959595 128.56097412 C-16.69271342 124.9720209 -16.69916368 121.38308637 -16.70360661 117.79411292 C-16.70653851 115.55125982 -16.71064356 113.30841182 -16.71511078 111.06556129 C-16.72878428 104.04643709 -16.73845153 97.02732455 -16.74231267 90.00818795 C-16.74679257 81.90894197 -16.76433782 73.80986482 -16.79331326 65.71067017 C-16.8149392 59.44814385 -16.82501744 53.18566499 -16.82635379 46.92310172 C-16.82740121 43.18375744 -16.83329544 39.44457189 -16.8511734 35.70526695 C-16.87073572 31.5324926 -16.8663615 27.360071 -16.85986328 23.18725586 C-16.86907806 21.95119095 -16.87829285 20.71512604 -16.88778687 19.44160461 C-16.83648852 8.94251322 -16.83648852 8.94251322 -13.50341797 4.16113281 C-9.27562423 0.32969473 -5.56209423 0.03201463 0 0 Z " fill="#C6F9FA" transform="translate(52.50341796875,82.8388671875)"/>
<path d="M0 0 C0.99 0 1.98 0 3 0 C3.02332938 15.62878361 3.04097937 31.25756253 3.05181217 46.88635921 C3.05697505 54.14258849 3.06401758 61.39880696 3.07543945 68.6550293 C3.08538656 74.97733856 3.09185349 81.29964001 3.09408849 87.62195688 C3.09539556 90.9715675 3.09848113 94.32115574 3.10573006 97.6707592 C3.1129362 101.40413645 3.11399112 105.13746658 3.11352539 108.87084961 C3.11712067 109.98934296 3.12071594 111.1078363 3.12442017 112.26022339 C3.1230455 113.27129654 3.12167084 114.28236969 3.12025452 115.32408142 C3.12163721 116.65008063 3.12163721 116.65008063 3.12304783 118.0028677 C3 120 3 120 2 121 C-0.10093825 121.09687035 -2.20519517 121.12186861 -4.30836487 121.12025452 C-5.30807506 121.12153615 -5.30807506 121.12153615 -6.32798141 121.12284368 C-8.57748634 121.12450035 -10.82691788 121.11897411 -13.07641602 121.11352539 C-14.68245441 121.11324353 -16.28849293 121.11340122 -17.89453125 121.1139679 C-22.26831067 121.11425593 -26.64206292 121.10835832 -31.015836 121.10139394 C-35.58159578 121.09516131 -40.14735613 121.09455667 -44.71311951 121.09336853 C-53.36521305 121.09025495 -62.01729403 121.08204119 -70.66938204 121.07201904 C-80.51685823 121.06085874 -90.36433501 121.05534766 -100.21181595 121.05032361 C-120.474551 121.0398586 -140.73727471 121.02225864 -161 121 C-161.33 120.34 -161.66 119.68 -162 119 C-108.21 119 -54.42 119 1 119 C0.67 79.73 0.34 40.46 0 0 Z " fill="#D3FCFD" transform="translate(198,288)"/>
<path d="M0 0 C0.67029704 -0.00367669 1.34059408 -0.00735338 2.03120315 -0.01114148 C4.27023015 -0.02212674 6.50921065 -0.02601336 8.7482605 -0.02983093 C10.35674688 -0.03609954 11.96523183 -0.04274669 13.57371521 -0.04974365 C18.85047404 -0.0707413 24.12723301 -0.08114285 29.40402222 -0.09111023 C31.22428273 -0.09515956 33.0445431 -0.09927653 34.86480331 -0.10346031 C43.41899432 -0.1225035 51.97317676 -0.13673568 60.52738488 -0.14507228 C70.3839745 -0.1548381 80.24033916 -0.18114416 90.09684956 -0.22157317 C97.72678504 -0.25178944 105.35665623 -0.26654642 112.98665035 -0.26985329 C117.53826129 -0.2721977 122.08963167 -0.2810784 126.64117813 -0.30631447 C130.92748669 -0.32969657 135.213398 -0.33378799 139.49975395 -0.32355309 C141.06578205 -0.32306005 142.63183039 -0.32931136 144.19779778 -0.34310913 C154.07887881 -0.42524263 164.86374741 -0.46039114 172.39620972 6.89717102 C172.99433472 7.63967102 173.59245972 8.38217102 174.20870972 9.14717102 C168.76541827 7.42823688 168.76541827 7.42823688 166.26542854 6.16606522 C158.1256801 2.24744904 149.9981592 2.61101198 141.19259644 2.69306946 C139.48670987 2.69419943 137.78082136 2.69356115 136.07493591 2.69129944 C131.47013013 2.69015721 126.86574568 2.71358654 122.26103735 2.74159527 C117.43910228 2.76669119 112.61715632 2.76895736 107.79516602 2.7736969 C98.67579486 2.78610268 89.55661673 2.81889171 80.43733037 2.85909486 C70.05038264 2.90388737 59.66342544 2.92581839 49.2764051 2.9458766 C27.92039912 2.98762655 6.56456661 3.05793179 -14.79129028 3.14717102 C-10.006655 -0.04258583 -5.65551624 0.02017642 0 0 Z " fill="#D8F9FC" transform="translate(174.79129028320313,24.852828979492188)"/>
<path d="M0 0 C-1 3 -1 3 -4 5 C-4.99 5 -5.98 5 -7 5 C-7 5.99 -7 6.98 -7 8 C-7.99 8 -8.98 8 -10 8 C-10.12375 8.5775 -10.2475 9.155 -10.375 9.75 C-11.00648824 12.02335767 -11.88858191 13.9253529 -13 16 C-13.66 16 -14.32 16 -15 16 C-15.04681491 32.25564301 -15.08203522 48.51126401 -15.10362434 64.76695824 C-15.11391701 72.3155277 -15.12793871 79.86405516 -15.15087891 87.41259766 C-15.17087454 93.99538631 -15.18373103 100.57814452 -15.18817699 107.1609627 C-15.19077396 110.6433512 -15.19683561 114.12565267 -15.21146011 117.60801315 C-15.22769083 121.50480474 -15.22797574 125.40151283 -15.22705078 129.29833984 C-15.23424133 130.44058014 -15.24143188 131.58282043 -15.24884033 132.75967407 C-15.22334844 142.71719911 -14.16195098 150.45608113 -9 159 C-9.495 159.99 -9.495 159.99 -10 161 C-10.96724632 159.6312552 -11.9233644 158.25464396 -12.875 156.875 C-13.40867188 156.10929688 -13.94234375 155.34359375 -14.4921875 154.5546875 C-18.45280307 147.84421449 -18.29654491 141.48040988 -18.29052734 133.89526367 C-18.29724457 132.67989426 -18.30396179 131.46452484 -18.31088257 130.21232605 C-18.32659492 126.88979224 -18.33323581 123.56750846 -18.33451414 120.24495482 C-18.33593928 118.16537588 -18.34021574 116.08582286 -18.34550858 114.00625038 C-18.36399282 106.74039684 -18.37218129 99.47461651 -18.37060547 92.20874023 C-18.36940481 85.45356176 -18.39049623 78.69870317 -18.4220928 71.9436056 C-18.44831194 66.12936416 -18.4589704 60.31522684 -18.45769465 54.50092679 C-18.45718662 51.03479169 -18.4627805 47.56894102 -18.48405075 44.10286522 C-18.50715359 40.23275834 -18.49787778 36.36308435 -18.48583984 32.49291992 C-18.49707886 31.35651062 -18.50831787 30.22010132 -18.51989746 29.04925537 C-18.44020863 18.94317094 -15.59808789 12.04960326 -8.7421875 4.6640625 C-6.1370922 2.17578762 -3.70904099 0 0 0 Z " fill="#BBF9FD" transform="translate(160,28)"/>
<path d="M0 0 C0 0.66 0 1.32 0 2 C-52.8 2 -105.6 2 -160 2 C-156.49990299 -0.33339801 -155.08717352 -0.25956649 -150.94706726 -0.28520203 C-149.04808182 -0.30411499 -149.04808182 -0.30411499 -147.11073303 -0.32341003 C-145.70492606 -0.32737003 -144.29911852 -0.33113229 -142.89331055 -0.3347168 C-141.41493092 -0.34565083 -139.93655742 -0.35744135 -138.45819092 -0.37002563 C-134.43951882 -0.40165678 -130.42087278 -0.42088338 -126.40211463 -0.43764853 C-122.19681165 -0.45699192 -117.99158118 -0.48672466 -113.78633118 -0.51509094 C-106.7206177 -0.56118336 -99.65489518 -0.59956733 -92.58911133 -0.63305664 C-84.42469756 -0.67181395 -76.26040165 -0.72108065 -68.0960843 -0.77638692 C-60.2413931 -0.82948488 -52.38667846 -0.87663991 -44.53193092 -0.92057228 C-41.19036439 -0.93927474 -37.84881601 -0.95977264 -34.50726891 -0.98166466 C-30.56832134 -1.00709119 -26.62938039 -1.02721794 -22.69038391 -1.043293 C-21.24642828 -1.04998416 -19.8024795 -1.05841904 -18.3585453 -1.06874657 C-16.3836859 -1.08256124 -14.40878092 -1.08931932 -12.43388367 -1.0957489 C-11.32978496 -1.1014474 -10.22568624 -1.1071459 -9.08813 -1.11301708 C-5.97898677 -0.99923097 -3.05356558 -0.58066885 0 0 Z " fill="#AFF5F9" transform="translate(198,285)"/>
<path d="M0 0 C4.98989083 4.30163003 6.95113236 9.62084801 8 16 C8.09049403 17.69477994 8.13462106 19.39246114 8.14044189 21.08964539 C8.14900711 22.5928257 8.14900711 22.5928257 8.15774536 24.12637329 C8.15886322 25.21477509 8.15998108 26.30317688 8.16113281 27.42456055 C8.16609772 28.57965622 8.17106262 29.73475189 8.17617798 30.92485046 C8.19078012 34.7454793 8.19759877 38.5660666 8.203125 42.38671875 C8.2074239 44.37371047 8.21172334 46.36070219 8.2160995 48.34769374 C8.22790025 53.88508223 8.23544403 59.42246072 8.2388947 64.9598605 C8.24336948 72.09970779 8.26089463 79.23936306 8.2898953 86.379152 C8.31158246 91.91227595 8.32160276 97.44534615 8.32293582 102.97851211 C8.32397907 106.27643191 8.33125218 109.57413096 8.34775543 112.872015 C8.36488094 116.55764528 8.36291935 120.24281246 8.35644531 123.9284668 C8.3656601 125.00674744 8.37487488 126.08502808 8.3843689 127.19598389 C8.33683542 135.86955408 7.19101137 144.18586126 1.5 151.0625 C0.9121875 151.79597656 0.324375 152.52945313 -0.28125 153.28515625 C-2 155 -2 155 -5 156 C-5 155.34 -5 154.68 -5 154 C-4.401875 153.4225 -3.80375 152.845 -3.1875 152.25 C-0.72207845 149.71413784 0.54430427 147.2025306 2 144 C2.66 144 3.32 144 4 144 C5.12770564 137.66647244 5.15468841 131.44740851 5.16113281 125.02539062 C5.16609772 123.83592331 5.17106262 122.64645599 5.17617798 121.42094421 C5.1882337 118.17511862 5.19572995 114.92932891 5.20018864 111.68348503 C5.20313067 109.65233463 5.20723739 107.62118972 5.21169281 105.59004211 C5.22534169 99.22500115 5.23502295 92.85997292 5.2388947 86.49491835 C5.24337918 79.16489188 5.26095593 71.83505154 5.2898953 64.50508165 C5.31153775 58.82504413 5.32160023 53.14505891 5.32293582 47.4649806 C5.32398135 44.07833135 5.32983613 40.69185768 5.34775543 37.30525208 C5.36481072 33.52822732 5.36293704 29.75165702 5.35644531 25.97460938 C5.37026749 24.30364449 5.37026749 24.30364449 5.3843689 22.59892273 C5.34356435 15.01964462 4.24397359 10.36596039 0 4 C0 2.68 0 1.36 0 0 Z " fill="#D3FBFC" transform="translate(483,272)"/>
<path d="M0 0 C0.33 0 0.66 0 1 0 C1.14540958 3.12630597 1.2148897 5.48072757 0.00763988 8.39799881 C-1.05046892 11.13032454 -1.24912905 13.03191026 -1.24723816 15.94451904 C-1.25143265 16.9144278 -1.25562714 17.88433655 -1.25994873 18.88363647 C-1.25432922 19.93620636 -1.24870972 20.98877625 -1.24291992 22.07324219 C-1.24481827 23.19092987 -1.24671661 24.30861755 -1.24867249 25.46017456 C-1.25237753 29.1558127 -1.24167672 32.8512543 -1.23046875 36.546875 C-1.2292763 39.11891659 -1.22882392 41.69095863 -1.2290802 44.26300049 C-1.22751561 49.65648317 -1.21947396 55.0498951 -1.20581055 60.44335938 C-1.19011775 66.6604666 -1.18481143 72.87751203 -1.1855461 79.09463763 C-1.18615891 85.09232975 -1.18091934 91.08999693 -1.17275429 97.08768463 C-1.16957955 99.63129811 -1.16760301 102.17491339 -1.16686058 104.71852875 C-1.1646824 108.28210992 -1.15590532 111.84561499 -1.14526367 115.40917969 C-1.14571686 116.45365265 -1.14617004 117.49812561 -1.14663696 118.57424927 C-1.26995714 129.4976342 -1.26995714 129.4976342 1.625 139.875 C3 143 3 143 2 146 C-4.24881711 137.87653776 -4.29893827 129.0892996 -4.29052734 119.13720703 C-4.29724457 117.98313354 -4.30396179 116.82906006 -4.31088257 115.64001465 C-4.32979466 111.84590281 -4.33378315 108.05196846 -4.3359375 104.2578125 C-4.34074192 102.27741545 -4.34555031 100.29701838 -4.35085833 98.31662261 C-4.36708955 92.09632264 -4.37203203 85.87608045 -4.37060547 79.65576172 C-4.36940444 73.26580084 -4.39051043 66.87617791 -4.4220928 60.4863025 C-4.44834873 54.97515074 -4.45896893 49.46410877 -4.45769465 43.95289505 C-4.45718785 40.67227642 -4.46459037 37.3920241 -4.48405075 34.11145401 C-4.50375167 30.44788156 -4.49785589 26.78516976 -4.48583984 23.12158203 C-4.49707886 22.05318085 -4.50831787 20.98477966 -4.51989746 19.88400269 C-4.4592622 12.57064792 -2.90401204 6.70253419 0 0 Z " fill="#D9F8F9" transform="translate(278,276)"/>
<path d="M0 0 C1.67128962 -0.00570826 3.34257535 -0.01267429 5.01385498 -0.02079773 C9.53662512 -0.0386936 14.05920086 -0.03756753 18.58199573 -0.03185534 C22.36423253 -0.02875841 26.14643227 -0.03486154 29.92866379 -0.04089409 C38.85432955 -0.05492589 47.77989956 -0.05338914 56.70556641 -0.04199219 C65.89991494 -0.03051127 75.09397176 -0.04458926 84.28828186 -0.07138866 C92.19597021 -0.09357102 100.10356717 -0.10017736 108.01128441 -0.09431225 C112.7281948 -0.09094766 117.4449182 -0.09332462 122.16180229 -0.11056328 C126.59837899 -0.1260709 131.03452469 -0.12203474 135.47108459 -0.10325813 C137.09438052 -0.09958284 138.71770865 -0.1026497 140.34097481 -0.11314392 C158.64657611 -0.2224056 158.64657611 -0.2224056 165.26550961 6.03881168 C165.6852181 6.48934123 166.10492659 6.93987078 166.53735352 7.40405273 C164.88735352 7.07405273 163.23735352 6.74405273 161.53735352 6.40405273 C161.53735352 5.74405273 161.53735352 5.08405273 161.53735352 4.40405273 C160.58860352 4.25967773 159.63985352 4.11530273 158.66235352 3.96655273 C155.53735352 3.40405273 155.53735352 3.40405273 153.53735352 2.40405273 C151.33612065 2.30095978 149.13168731 2.26450493 146.92805481 2.25688171 C146.24116457 2.25320503 145.55427433 2.24952834 144.84656924 2.24574023 C142.53361031 2.23468416 140.22069627 2.23085629 137.90771484 2.22705078 C136.25377255 2.2207875 134.59983166 2.21414082 132.94589233 2.20713806 C128.44362313 2.18971389 123.94136456 2.17917207 119.43906999 2.17093253 C116.62651462 2.16578453 113.81396256 2.15970866 111.00140953 2.1534214 C102.20267375 2.1343639 93.40394638 2.12013492 84.60519391 2.11180943 C74.44686453 2.10203913 64.28875317 2.07572736 54.13050061 2.03530854 C46.28073244 2.00514659 38.43102674 1.99034042 30.58120173 1.98702842 C25.8921843 1.98467769 21.20339964 1.97571458 16.51444435 1.95056725 C12.10097093 1.92728062 7.68788341 1.92305562 3.27436447 1.93332863 C1.65666991 1.93382399 0.03895632 1.92750354 -1.57868004 1.91377258 C-3.79239005 1.89603736 -6.00471759 1.90316627 -8.21842957 1.91630554 C-9.45564349 1.91391719 -10.69285742 1.91152884 -11.96756268 1.90906811 C-16.37681613 2.53352028 -18.73282215 3.99762637 -22.46264648 6.40405273 C-23.32631836 6.94288086 -24.18999023 7.48170898 -25.07983398 8.03686523 C-25.82491211 8.52928711 -26.56999023 9.02170898 -27.33764648 9.52905273 C-28.09819336 10.02663086 -28.85874023 10.52420898 -29.64233398 11.03686523 C-31.59095035 12.28849413 -31.59095035 12.28849413 -32.46264648 14.40405273 C-33.12264648 14.40405273 -33.78264648 14.40405273 -34.46264648 14.40405273 C-33.06359402 11.18905845 -31.45125067 9.16880586 -28.83764648 6.84155273 C-28.20600586 6.26276367 -27.57436523 5.68397461 -26.92358398 5.08764648 C-18.57588963 -0.62323648 -9.70729783 -0.0299308 0 0 Z " fill="#CBFEFE" transform="translate(313.462646484375,261.595947265625)"/>
<path d="M0 0 C1.67143868 -0.00542728 3.34287257 -0.01255333 5.01429749 -0.02124023 C9.53294013 -0.03940455 14.05121559 -0.03243469 18.56986427 -0.01972389 C23.31021705 -0.00956038 28.05053947 -0.01899885 32.79089355 -0.02526855 C40.74981297 -0.03253522 48.70858366 -0.02298304 56.66748047 -0.00390625 C65.85447658 0.01786061 75.04111755 0.01080854 84.22810507 -0.01121187 C92.13157731 -0.02939386 100.03494295 -0.03191053 107.93842936 -0.0214572 C112.65195946 -0.01523763 117.36532292 -0.01434418 122.07884216 -0.02760315 C126.51134715 -0.03920185 130.94339654 -0.03106294 135.37585258 -0.00802612 C136.99752994 -0.00276042 138.61924597 -0.00421598 140.24090767 -0.01307678 C149.99516764 -0.06143952 158.35824711 0.06975089 165.98632812 6.76757812 C166.46070313 7.34507812 166.93507812 7.92257812 167.42382812 8.51757812 C164.64291098 8.13133963 162.80183679 7.80738477 160.54882812 6.08007812 C155.74939727 2.55108485 150.07556655 2.26664968 144.2959137 2.25688171 C143.613624 2.25305617 142.93133431 2.24923062 142.22836918 2.24528915 C139.960841 2.23503793 137.69356979 2.23893612 135.42602539 2.24291992 C133.79267138 2.2385691 132.15931942 2.23338472 130.52597046 2.22743225 C126.10241207 2.21407146 121.67893928 2.21346028 117.25536466 2.21599555 C113.55759209 2.21706715 109.85983671 2.2121771 106.16206783 2.20739013 C97.43640122 2.19630525 88.71077766 2.19585194 79.98510742 2.2019043 C70.99359816 2.20794528 62.00224533 2.19562759 53.01076275 2.17433423 C45.28061413 2.15670333 37.55051523 2.15071918 29.82034725 2.15397197 C25.20799849 2.15578245 20.59576136 2.15317208 15.98343086 2.13925743 C11.64543052 2.12665932 7.30767368 2.12864189 2.96967697 2.14166832 C1.38143646 2.14402926 -0.20682131 2.14131676 -1.79504204 2.1330452 C-9.64567364 2.09511954 -16.32842716 2.22921895 -23.57617188 5.51757812 C-24.23617188 5.18757813 -24.89617188 4.85757812 -25.57617188 4.51757812 C-17.2588694 -0.20690292 -9.30234618 -0.05082824 0 0 Z " fill="#CBFDFD" transform="translate(48.576171875,261.482421875)"/>
<path d="M0 0 C1.24132187 0.00222061 2.48264374 0.00444122 3.76158142 0.00672913 C4.44447739 0.0065831 5.12737335 0.00643707 5.83096313 0.00628662 C8.09815092 0.00698575 10.36525752 0.01477811 12.63243103 0.02259827 C14.20041865 0.02446245 15.76840685 0.02588635 17.33639526 0.02688599 C21.47103981 0.03071117 25.60564944 0.04054146 29.74028015 0.05158997 C33.95627876 0.06180407 38.172283 0.0663836 42.38829041 0.07142639 C50.66630125 0.08216373 58.94428368 0.09924015 67.22227478 0.12025452 C67.22227478 0.45025452 67.22227478 0.78025452 67.22227478 1.12025452 C44.78227478 1.12025452 22.34227478 1.12025452 -0.77772522 1.12025452 C-0.77772522 6.07025452 -0.77772522 11.02025452 -0.77772522 16.12025452 C0.54227478 15.79025452 1.86227478 15.46025452 3.22227478 15.12025452 C6.35293302 14.99341452 9.46838883 15.16705004 12.59727478 15.30775452 C13.43516541 15.32644592 14.27305603 15.34513733 15.13633728 15.36439514 C20.56818917 15.6078036 23.97791554 16.42122316 28.22227478 20.12025452 C30.20432716 22.97942203 30.49530177 25.3027196 30.47227478 28.74525452 C30.48000916 29.90927795 30.48000916 29.90927795 30.48789978 31.09681702 C30.22227478 33.12025452 30.22227478 33.12025452 28.22227478 35.12025452 C28.22227478 31.16025452 28.22227478 27.20025452 28.22227478 23.12025452 C27.56227478 23.12025452 26.90227478 23.12025452 26.22227478 23.12025452 C25.89227478 21.80025452 25.56227478 20.48025452 25.22227478 19.12025452 C24.37930847 19.09519836 23.53634216 19.07014221 22.66783142 19.04432678 C19.54985804 18.94937296 16.43205975 18.85013004 13.3143158 18.74794006 C11.96313331 18.70454229 10.61189425 18.66287082 9.26060486 18.62294006 C7.32190777 18.565355 5.38341202 18.50111154 3.44493103 18.43666077 C2.27712097 18.40000305 1.10931091 18.36334534 -0.09388733 18.32557678 C-2.77772522 18.12025452 -2.77772522 18.12025452 -3.77772522 17.12025452 C-3.87753736 14.44294072 -3.91652397 11.79721277 -3.90272522 9.12025452 C-3.90659241 8.37002014 -3.91045959 7.61978577 -3.91444397 6.84681702 C-3.90239005 0.16894401 -3.90239005 0.16894401 0 0 Z " fill="#D0FBFB" transform="translate(396.77772521972656,432.87974548339844)"/>
<path d="M0 0 C0.9215538 0.00222061 1.8431076 0.00444122 2.79258728 0.00672913 C3.83359085 0.00680466 4.87459442 0.00688019 5.94714355 0.00695801 C7.07941879 0.01211929 8.21169403 0.01728058 9.37828064 0.02259827 C10.53106003 0.02401321 11.68383942 0.02542816 12.87155151 0.02688599 C16.57043503 0.03250446 20.26925903 0.0450601 23.96812439 0.05775452 C26.46877456 0.06276714 28.96942567 0.06733045 31.47007751 0.07142639 C37.61528027 0.0824799 43.76044808 0.099236 49.90562439 0.12025452 C49.90562439 0.45025452 49.90562439 0.78025452 49.90562439 1.12025452 C24.66062439 1.61525452 24.66062439 1.61525452 -1.09437561 2.12025452 C-1.09324768 5.71875305 -1.09211975 9.31725159 -1.09095764 13.02479553 C-1.09158522 24.91523254 -1.12474107 36.80542696 -1.17465401 48.6957407 C-1.20412212 55.90478631 -1.22248409 63.11353765 -1.2144928 70.32264709 C-1.20755407 76.60784739 -1.22166547 82.89259205 -1.26081169 89.17768043 C-1.2808024 92.50426939 -1.28727542 95.82998492 -1.27479935 99.15663338 C-1.26264132 102.87512003 -1.28768645 106.5916375 -1.32142639 110.30995178 C-1.30920547 111.40687347 -1.29698456 112.50379517 -1.28439331 113.63395691 C-1.38821977 119.98563235 -2.22417073 123.47588065 -6.80904961 128.00421047 C-7.23320719 128.37250501 -7.65736477 128.74079954 -8.09437561 129.12025452 C-9.08437561 128.79025452 -10.07437561 128.46025452 -11.09437561 128.12025452 C-9.71937561 126.62025452 -9.71937561 126.62025452 -8.09437561 125.12025452 C-7.43437561 125.12025452 -6.77437561 125.12025452 -6.09437561 125.12025452 C-5.76437561 123.80025452 -5.43437561 122.48025452 -5.09437561 121.12025452 C-4.43437561 121.12025452 -3.77437561 121.12025452 -3.09437561 121.12025452 C-3.0952974 120.50272843 -3.0962192 119.88520235 -3.09716892 119.24896336 C-3.1192245 104.24394303 -3.13578733 89.23892765 -3.14618778 74.2338953 C-3.15135066 66.97766603 -3.15839319 59.72144756 -3.16981506 52.46522522 C-3.17976217 46.14291595 -3.1862291 39.82061451 -3.18846411 33.49829763 C-3.18977117 30.14868702 -3.19285674 26.79909878 -3.20010567 23.44949532 C-3.20731181 19.71611807 -3.20836673 15.98278793 -3.207901 12.24940491 C-3.21149628 11.13091156 -3.21509155 10.01241821 -3.21879578 8.86003113 C-3.21673378 7.3434214 -3.21673378 7.3434214 -3.21463013 5.7961731 C-3.21555192 4.91217362 -3.21647371 4.02817415 -3.21742344 3.11738682 C-3.04665642 0.34574641 -2.77215962 0.15917141 0 0 Z " fill="#CAFCFC" transform="translate(64.09437561035156,107.87974548339844)"/>
<path d="M0 0 C0 0.66 0 1.32 0 2 C-16.10780986 12.73853991 -38.64402094 4.64807311 -58 5 C-58.33 44.6 -58.66 84.2 -59 125 C-59.33 125 -59.66 125 -60 125 C-60 85.07 -60 45.14 -60 4 C-56.2107756 2.1053878 -55.08706372 1.75567184 -51.11132812 1.8046875 C-49.65962219 1.81459717 -49.65962219 1.81459717 -48.17858887 1.82470703 C-47.13996704 1.84130371 -46.10134521 1.85790039 -45.03125 1.875 C-43.42256042 1.88635986 -43.42256042 1.88635986 -41.78137207 1.89794922 C-37.19308953 1.93066425 -32.60516282 1.98698533 -28.01708984 2.04101562 C-24.66765989 2.07711783 -21.31828722 2.10134703 -17.96875 2.125 C-16.93012817 2.14159668 -15.89150635 2.15819336 -14.82141113 2.17529297 C-13.3697052 2.18520264 -13.3697052 2.18520264 -11.88867188 2.1953125 C-11.0391394 2.20578613 -10.18960693 2.21625977 -9.31433105 2.22705078 C-5.7781133 1.88012505 -3.62362511 0 0 0 Z " fill="#ABF6F8" transform="translate(120,104)"/>
<path d="M0 0 C24.42 0 48.84 0 74 0 C74 5.61 74 11.22 74 17 C66.74 17 59.48 17 52 17 C52 17.66 52 18.32 52 19 C51.236875 19.433125 50.47375 19.86625 49.6875 20.3125 C46.4564656 22.34128904 45.36835575 23.42707109 44 27 C44.05706305 30.38228247 44.4621938 33.6630097 45 37 C45.99 37 46.98 37 48 37 C48 37.99 48 38.98 48 40 C45.06635673 38.98839887 44.00328791 38.00464842 42.1875 35.4375 C40.64335073 30.96759423 40.76780392 27.54319917 42 23 C44.43509312 18.91252226 46.5521922 17.46013689 51 16 C53.5871582 15.77294922 53.5871582 15.77294922 56.30078125 15.8046875 C57.27724609 15.81113281 58.25371094 15.81757813 59.25976562 15.82421875 C60.26716797 15.84097656 61.27457031 15.85773438 62.3125 15.875 C63.33923828 15.88402344 64.36597656 15.89304688 65.42382812 15.90234375 C67.94931927 15.92583669 70.47468992 15.96170549 73 16 C72.67 11.38 72.34 6.76 72 2 C48.24 1.67 24.48 1.34 0 1 C0 0.67 0 0.34 0 0 Z " fill="#CDFAFA" transform="translate(164,196)"/>
<path d="M0 0 C0.5775 0.20625 1.155 0.4125 1.75 0.625 C-6.0892528 5.91832724 -14.36278658 5.1351495 -23.4375 5.015625 C-25.10757771 5.00815483 -26.77766426 5.00246557 -28.44775391 4.99847412 C-32.82090912 4.98327872 -37.193524 4.94405052 -41.56646729 4.8996582 C-46.03772678 4.8585731 -50.50907448 4.84043497 -54.98046875 4.8203125 C-63.73722577 4.77754943 -72.49354547 4.70937328 -81.25 4.625 C-81.25 3.965 -81.25 3.305 -81.25 2.625 C-80.31927673 2.61691315 -79.38855347 2.60882629 -78.42962646 2.60049438 C-69.65992902 2.52302144 -60.89038651 2.43527923 -52.12089157 2.33747292 C-47.61236399 2.28751957 -43.10385972 2.24118943 -38.59521484 2.203125 C-34.24440881 2.16626006 -29.89379833 2.11989679 -25.54315948 2.06693649 C-23.88301269 2.04839897 -22.22282398 2.03328862 -20.56261444 2.02165604 C-18.23782816 2.00478251 -15.91348912 1.97574523 -13.58886719 1.94384766 C-12.9019429 1.94168747 -12.21501862 1.93952728 -11.50727844 1.93730164 C-7.41252787 1.86549118 -3.73908645 -0.62318107 0 0 Z " fill="#B1F6FA" transform="translate(476.25,428.375)"/>
<path d="M0 0 C0.99 0.33 1.98 0.66 3 1 C0.53416826 4.6987476 -0.76189699 4.93727971 -5 6 C-8.28288269 6.25396729 -8.28288269 6.25396729 -11.87573242 6.25878906 C-12.5350325 6.2622937 -13.19433258 6.26579834 -13.87361145 6.26940918 C-16.03434031 6.27815134 -18.19473706 6.27240632 -20.35546875 6.265625 C-21.86428388 6.26697333 -23.37309858 6.26891527 -24.88191223 6.27142334 C-28.03484254 6.27436399 -31.18765913 6.27010936 -34.34057617 6.26074219 C-38.38253616 6.24931875 -42.42423136 6.25593194 -46.46618176 6.26788712 C-49.57768251 6.27510932 -52.68912031 6.27281665 -55.80062294 6.26763153 C-57.29137516 6.26629755 -58.7821331 6.26793395 -60.27287865 6.27259064 C-62.35289076 6.2776651 -64.43247125 6.26993447 -66.51245117 6.25878906 C-67.6957048 6.25719788 -68.87895844 6.25560669 -70.09806824 6.25396729 C-73 6 -73 6 -76 4 C-51.91 4 -27.82 4 -3 4 C-2.67 3.01 -2.34 2.02 -2 1 C-1.34 0.67 -0.68 0.34 0 0 Z " fill="#D2FAFB" transform="translate(156,469)"/>
<path d="M0 0 C1.00418472 0.16076523 2.00836945 0.32153046 3.04298401 0.48716736 C6.84238834 0.97957339 10.48366143 1.15755014 14.31225586 1.20532227 C15.00578156 1.21522186 15.69930725 1.22512146 16.41384888 1.23532104 C18.68081377 1.26662773 20.94779954 1.29156992 23.21484375 1.31640625 C24.79668182 1.3370025 26.37851473 1.35799963 27.96034241 1.37937927 C32.10470363 1.43432437 36.24911223 1.48385408 40.39355469 1.53222656 C44.63025075 1.58264406 48.8668788 1.63822397 53.10351562 1.69335938 C61.40228609 1.80060334 69.70111381 1.90212191 78 2 C74.40993606 4.39337596 72.79539303 4.25800048 68.52832031 4.2746582 C67.87588348 4.27976913 67.22344666 4.28488007 66.55123901 4.29014587 C64.39344105 4.30404917 62.23596245 4.30308389 60.078125 4.30078125 C58.5746041 4.30466927 57.0710843 4.30900416 55.56756592 4.31376648 C52.41349736 4.32123135 49.25954072 4.32093661 46.10546875 4.31567383 C42.07605984 4.30989464 38.04711291 4.32677086 34.0177803 4.3500185 C30.91039376 4.36480229 27.80311708 4.36562098 24.6957016 4.36250877 C23.21103759 4.36302018 21.72636713 4.36822386 20.24173737 4.37832069 C18.15727952 4.39075139 16.07370311 4.38385385 13.98925781 4.37231445 C12.80583801 4.37294388 11.62241821 4.3735733 10.40313721 4.3742218 C6.36844222 3.93055152 3.64009392 2.75486007 0 1 C0 0.67 0 0.34 0 0 Z " fill="#D0F9FB" transform="translate(342,471)"/>
<path d="M0 0 C24.75 0 49.5 0 75 0 C75 0.99 75 1.98 75 3 C65.95941225 2.89237834 56.91890529 2.77972074 47.87846088 2.66066074 C43.6804746 2.60553218 39.48248123 2.55212854 35.28442383 2.50268555 C31.23193137 2.45489318 27.17952086 2.40254548 23.12712669 2.34705925 C21.58222689 2.32670294 20.03730468 2.30797901 18.49236488 2.29092598 C16.32596378 2.2667325 14.15971554 2.23669929 11.9934082 2.20532227 C10.76096878 2.18977798 9.52852936 2.1742337 8.25874329 2.15821838 C5.38704215 2.01879166 2.79187236 1.65931513 0 1 C0 0.67 0 0.34 0 0 Z " fill="#CFF9FB" transform="translate(295,432)"/>
<path d="M0 0 C2.31 0.66 4.62 1.32 7 2 C7 2.66 7 3.32 7 4 C8.65 4.33 10.3 4.66 12 5 C12 5.66 12 6.32 12 7 C36.75 7.33 61.5 7.66 87 8 C87 8.33 87 8.66 87 9 C77.52440908 9.11626848 68.04906678 9.20490389 58.57291603 9.25906086 C54.17188803 9.28506437 49.77135099 9.32029107 45.37060547 9.37719727 C41.11710211 9.43185014 36.86406854 9.46148994 32.61024094 9.47438622 C30.99401843 9.48356685 29.37781927 9.50149374 27.76179886 9.52865028 C18.80071008 9.67313698 10.42543381 9.80415716 3 4 C1.24282837 1.83003235 1.24282837 1.83003235 0 0 Z " fill="#B7F3F6" transform="translate(17,424)"/>
<path d="M0 0 C0.70125 0.309375 1.4025 0.61875 2.125 0.9375 C5.08936657 2.03302678 7.87698108 2.56422992 11 3 C11 3.66 11 4.32 11 5 C36.08 5.33 61.16 5.66 87 6 C87 6.33 87 6.66 87 7 C76.98567995 7.13939289 66.97159297 7.2458195 56.95649815 7.31087303 C52.30536546 7.34210544 47.65489945 7.3844286 43.00415039 7.45263672 C38.51073144 7.51812045 34.01795123 7.55376682 29.52409172 7.56926346 C27.81490977 7.58029809 26.1057604 7.6018464 24.39685249 7.63438034 C8.24681694 7.92944477 8.24681694 7.92944477 1.33799744 2.38955688 C0 1 0 1 0 0 Z " fill="#AAF7FC" transform="translate(283,425)"/>
<path d="M0 0 C0.33 0 0.66 0 1 0 C1 4.29 1 8.58 1 13 C-1.27777344 13.02126953 -1.27777344 13.02126953 -3.6015625 13.04296875 C-5.60940495 13.08988096 -7.61721652 13.13812828 -9.625 13.1875 C-11.12353516 13.19620117 -11.12353516 13.19620117 -12.65234375 13.20507812 C-19.08170874 13.36941577 -19.08170874 13.36941577 -24.65234375 16.2734375 C-26.9564892 18.94946666 -27.78400827 19.99314557 -27.9375 23.4375 C-27.97617187 24.20835937 -28.01484375 24.97921875 -28.0546875 25.7734375 C-27.98548795 28.5908477 -27.63347062 31.25496065 -27 34 C-30.15617637 30.98104869 -31.17090274 29.13206265 -31.3125 24.75 C-31.26032408 20.12125057 -30.10512601 17.53639351 -27 14 C-24.05240766 12.18648661 -21.74066669 11.7281454 -18.3046875 11.62109375 C-16.98404297 11.56985352 -16.98404297 11.56985352 -15.63671875 11.51757812 C-14.72535156 11.49115234 -13.81398438 11.46472656 -12.875 11.4375 C-11.05976053 11.37767093 -9.24464071 11.31405455 -7.4296875 11.24609375 C-6.62772949 11.22216553 -5.82577148 11.1982373 -4.99951172 11.17358398 C-2.92790917 11.11736322 -2.92790917 11.11736322 -1 10 C-0.53248212 7.64400765 -0.53248212 7.64400765 -0.375 4.9375 C-0.30023438 4.01839844 -0.22546875 3.09929687 -0.1484375 2.15234375 C-0.09945313 1.44207031 -0.05046875 0.73179687 0 0 Z " fill="#BDF8F8" transform="translate(369,437)"/>
<path d="M0 0 C1.65 0 3.3 0 5 0 C5 0.66 5 1.32 5 2 C43.115 2.495 43.115 2.495 82 3 C82 3.33 82 3.66 82 4 C72.19450078 4.06958022 62.38906052 4.12285201 52.58336449 4.15543652 C48.02993408 4.17107726 43.47667288 4.1922864 38.92333984 4.22631836 C34.52724169 4.25896866 30.13130605 4.27686499 25.73509598 4.28463173 C24.0597948 4.29016507 22.38450228 4.30097039 20.70927048 4.31719017 C18.35855801 4.33904018 16.0085129 4.34196382 13.65771484 4.34057617 C12.62408813 4.35675491 12.62408813 4.35675491 11.56958008 4.3732605 C6.99708681 4.34414788 3.92784385 3.30355128 0 1 C0 0.67 0 0.34 0 0 Z " fill="#B2F8F6" transform="translate(155,192)"/>
<path d="M0 0 C0.33 0 0.66 0 1 0 C1.33 4.62 1.66 9.24 2 14 C3.59070313 14.01417969 5.18140625 14.02835937 6.8203125 14.04296875 C8.92190365 14.08987927 11.02346527 14.13812659 13.125 14.1875 C14.17171875 14.19330078 15.2184375 14.19910156 16.296875 14.20507812 C25.02566964 14.45368304 25.02566964 14.45368304 28.7421875 17.55078125 C29.48726562 18.35902344 30.23234375 19.16726563 31 20 C30.34 20.66 29.68 21.32 29 22 C29 21.34 29 20.68 29 20 C28.01 19.67 27.02 19.34 26 19 C26 18.34 26 17.68 26 17 C25.2479126 16.97494385 24.4958252 16.9498877 23.72094727 16.92407227 C20.33460804 16.80849486 16.94857387 16.68559655 13.5625 16.5625 C12.37849609 16.52318359 11.19449219 16.48386719 9.97460938 16.44335938 C8.84990234 16.40146484 7.72519531 16.35957031 6.56640625 16.31640625 C5.52427979 16.27974854 4.48215332 16.24309082 3.40844727 16.20532227 C1 16 1 16 0 15 C-0.07313567 12.46950598 -0.09247527 9.96695163 -0.0625 7.4375 C-0.05798828 6.72658203 -0.05347656 6.01566406 -0.04882812 5.28320312 C-0.03700864 3.52209987 -0.01907263 1.76103964 0 0 Z " fill="#D0F9FC" transform="translate(129,434)"/>
<path d="M0 0 C2.92161999 0.32462444 4.29328947 1.21826193 6.6875 3 C9.71875158 6.93243448 10.30272073 10.08727507 10 15 C8.76993057 18.5607273 8.01059414 20.3647694 4.8125 22.375 C4.214375 22.58125 3.61625 22.7875 3 23 C3.63855422 19.29638554 3.63855422 19.29638554 5.5625 17.71875 C7.27846098 16.02808527 7.27846098 16.02808527 7.07421875 13.30078125 C6.94660156 12.31464844 6.81898438 11.32851562 6.6875 10.3125 C6.56761719 9.31863281 6.44773437 8.32476562 6.32421875 7.30078125 C6.21722656 6.54152344 6.11023438 5.78226563 6 5 C5.01 5 4.02 5 3 5 C3 4.01 3 3.02 3 2 C2.01 1.67 1.02 1.34 0 1 C0 0.67 0 0.34 0 0 Z " fill="#CAF9F9" transform="translate(285,213)"/>
<path d="M0 0 C0.66 0.33 1.32 0.66 2 1 C1.525625 1.639375 1.05125 2.27875 0.5625 2.9375 C-1.47959881 6.94001367 -2.4223984 10.49185712 -2 15 C-0.6243938 17.77659258 0.93716936 19.63529171 3 22 C0.6875 21.8125 0.6875 21.8125 -2 21 C-4.73810112 17.57737361 -5.825467 14.36332506 -6 10 C-4.63889838 5.98475022 -3.34578365 2.70849153 0 0 Z " fill="#C8F9F9" transform="translate(382,85)"/>
<path d="M0 0 C3.20962297 0.05221827 6.4166246 0.14736769 9.625 0.25 C10.98044922 0.27126953 10.98044922 0.27126953 12.36328125 0.29296875 C18.00362718 0.49882079 21.61533114 1.09944284 26 5 C27.98205238 7.85916751 28.27302699 10.18246509 28.25 13.625 C28.25515625 14.40101563 28.2603125 15.17703125 28.265625 15.9765625 C28 18 28 18 26 20 C26 16.04 26 12.08 26 8 C25.34 8 24.68 8 24 8 C23.67 6.68 23.34 5.36 23 4 C18.26120232 2.85149303 13.53708638 2.67098443 8.6875 2.4375 C7.85154297 2.39431641 7.01558594 2.35113281 6.15429688 2.30664062 C4.10303065 2.20114693 2.0515352 2.10012685 0 2 C0 1.34 0 0.68 0 0 Z " fill="#CCF8F9" transform="translate(399,448)"/>
<path d="M0 0 C-1.36125 0.8353125 -1.36125 0.8353125 -2.75 1.6875 C-5.96173389 3.97277219 -8.02230396 5.59836282 -10 9 C-9.83177773 13.62611253 -8.58408147 17.67017731 -7 22 C-10.0023148 19.7482639 -11.71850311 18.39817878 -12.47265625 14.65234375 C-12.66913115 8.98874115 -11.91119506 5.34577229 -8 1 C-5.04047717 -1.12715703 -3.40733104 -1.21690394 0 0 Z " fill="#CAF9FA" transform="translate(85,450)"/>
<path d="M0 0 C-1 3 -1 3 -4 5 C-4.99 5 -5.98 5 -7 5 C-7 5.99 -7 6.98 -7 8 C-7.99 8 -8.98 8 -10 8 C-10.12375 8.5775 -10.2475 9.155 -10.375 9.75 C-11.00648824 12.02335767 -11.88858191 13.9253529 -13 16 C-13.66 16 -14.32 16 -15 16 C-15.66 17.32 -16.32 18.64 -17 20 C-16.66706374 13.34127482 -13.01155341 8.87691926 -8.33984375 4.4140625 C-3.14757948 0 -3.14757948 0 0 0 Z " fill="#C7F9FB" transform="translate(160,28)"/>
<path d="M0 0 C0.33 0 0.66 0 1 0 C1.66401193 9.29616697 -1.66644362 14.82530244 -7.6328125 21.75 C-9 23 -9 23 -11 23 C-11 22.34 -11 21.68 -11 21 C-10.401875 20.4225 -9.80375 19.845 -9.1875 19.25 C-6.72207845 16.71413784 -5.45569573 14.2025306 -4 11 C-3.34 11 -2.68 11 -2 11 C-1.855625 9.9275 -1.71125 8.855 -1.5625 7.75 C-1.16250558 5.08337051 -0.72408076 2.58600271 0 0 Z " fill="#CAF9FA" transform="translate(489,405)"/>
<path d="M0 0 C-2.56338933 2.99062088 -5.49616398 4.28243333 -9 6 C-13.17612835 8.35807198 -13.17612835 8.35807198 -16 12 C-16.66 12 -17.32 12 -18 12 C-16.56394807 8.61181498 -14.79533421 6.6813402 -12 4.3125 C-11.29875 3.71050781 -10.5975 3.10851562 -9.875 2.48828125 C-6.50725944 -0.18486282 -4.23996254 -0.0921731 0 0 Z " fill="#C4FAFA" transform="translate(297,264)"/>
<path d="M0 0 C0.33 0 0.66 0 1 0 C1 4.29 1 8.58 1 13 C-7.58 13.33 -16.16 13.66 -25 14 C-22.56797868 11.56797868 -21.84061341 11.72383611 -18.5 11.62109375 C-17.613125 11.58693359 -16.72625 11.55277344 -15.8125 11.51757812 C-14.884375 11.49115234 -13.95625 11.46472656 -13 11.4375 C-11.16653314 11.37765768 -9.33318447 11.31403881 -7.5 11.24609375 C-6.6853125 11.22216553 -5.870625 11.1982373 -5.03125 11.17358398 C-2.93257992 11.12022007 -2.93257992 11.12022007 -1 10 C-0.53248212 7.64400765 -0.53248212 7.64400765 -0.375 4.9375 C-0.30023438 4.01839844 -0.22546875 3.09929687 -0.1484375 2.15234375 C-0.09945313 1.44207031 -0.05046875 0.73179687 0 0 Z " fill="#DBFAFB" transform="translate(369,437)"/>
<path d="M0 0 C2.31 0.66 4.62 1.32 7 2 C7 2.66 7 3.32 7 4 C8.65 4.33 10.3 4.66 12 5 C12 5.66 12 6.32 12 7 C13.65 7 15.3 7 17 7 C17 7.66 17 8.32 17 9 C10.43502225 8.72063924 6.07471023 6.10550592 1 2 C0.67 1.34 0.34 0.68 0 0 Z " fill="#C9FAFB" transform="translate(17,424)"/>
<path d="M0 0 C7.18404854 0.26123813 11.32206314 2.70211724 17 7 C16.01 7.495 16.01 7.495 15 8 C12.79296875 7.07421875 12.79296875 7.07421875 10.1875 5.6875 C6.84359752 3.92195996 3.53355191 2.35125055 0 1 C0 0.67 0 0.34 0 0 Z " fill="#C4F9FB" transform="translate(332,26)"/>
<path d="M0 0 C3.71134205 3.1994328 5.42930118 6.3705719 7 11 C6.57421875 13.21875 6.57421875 13.21875 6 15 C5.17988688 13.44148245 4.36923787 11.87798284 3.5625 10.3125 C3.11003906 9.44238281 2.65757812 8.57226562 2.19140625 7.67578125 C1.04008072 5.09001736 0.43679247 2.78643472 0 0 Z " fill="#C9F9F9" transform="translate(483,272)"/>
<path d="M0 0 C1.32 0.33 2.64 0.66 4 1 C2.57140593 2.03325986 1.13177617 3.05127634 -0.3125 4.0625 C-1.51326172 4.91521484 -1.51326172 4.91521484 -2.73828125 5.78515625 C-3.48464844 6.18605469 -4.23101562 6.58695312 -5 7 C-5.99 6.67 -6.98 6.34 -8 6 C-6.75 4.5 -6.75 4.5 -5 3 C-3.68 3 -2.36 3 -1 3 C-0.67 2.01 -0.34 1.02 0 0 Z " fill="#CBF9FA" transform="translate(213,425)"/>
<path d="M0 0 C0.70125 0.309375 1.4025 0.61875 2.125 0.9375 C5.08936657 2.03302678 7.87698108 2.56422992 11 3 C11 4.32 11 5.64 11 7 C6.00724943 5.72278474 3.42388092 3.82669043 0 0 Z " fill="#CBF9FA" transform="translate(283,425)"/>
<path d="M0 0 C3.65882521 3.3621637 6.14420341 6.36050852 8 11 C7.67 11.66 7.34 12.32 7 13 C3 7.375 3 7.375 3 4 C2.01 3.67 1.02 3.34 0 3 C0 2.01 0 1.02 0 0 Z " fill="#CDF9FA" transform="translate(349,34)"/>
<path d="M0 0 C3.82097239 0.53069061 6.06171403 1.49701566 9 4 C8.67 5.65 8.34 7.3 8 9 C7.67 9 7.34 9 7 9 C7 7.35 7 5.7 7 4 C6.21625 3.896875 5.4325 3.79375 4.625 3.6875 C2 3 2 3 0 0 Z " fill="#C7F9FA" transform="translate(453,84)"/>
<path d="M0 0 C0.99 0.33 1.98 0.66 3 1 C1 4 1 4 -2 5 C-4.33299825 5.03954234 -6.66708189 5.04401732 -9 5 C-9 4.67 -9 4.34 -9 4 C-7.02 4 -5.04 4 -3 4 C-2.67 3.01 -2.34 2.02 -2 1 C-1.34 0.67 -0.68 0.34 0 0 Z " fill="#C4F8F8" transform="translate(156,469)"/>
<path d="M0 0 C0.33 0 0.66 0 1 0 C1.53122363 1.76774419 2.04964073 3.53934083 2.5625 5.3125 C2.85253906 6.29863281 3.14257812 7.28476562 3.44140625 8.30078125 C4 11 4 11 3 14 C-0.53286034 9.43672206 -0.32374517 5.50366792 0 0 Z " fill="#CEFAFA" transform="translate(338,457)"/>
<path d="M0 0 C0.99 0.495 0.99 0.495 2 1 C2 1.66 2 2.32 2 3 C2.66 3 3.32 3 4 3 C4.66 5.64 5.32 8.28 6 11 C3.34730103 8.52414762 1.31989897 6.40973899 0 3 C0 2.01 0 1.02 0 0 Z " fill="#CDFAFC" transform="translate(11,413)"/>
<path d="M0 0 C2.26185454 2.26185454 3.03921617 3.96983561 4 7 C3.67 7.99 3.34 8.98 3 10 C-1.06153846 4.58461538 -1.06153846 4.58461538 -0.75 1.625 C-0.5025 1.08875 -0.255 0.5525 0 0 Z " fill="#CAF9FB" transform="translate(277,412)"/>
<path d="M0 0 C2.45416273 3.6812441 2.59384154 6.72261963 2 11 C0.5 13.5 0.5 13.5 -1 15 C-1.042721 13.33388095 -1.04063832 11.66617115 -1 10 C-0.67 9.67 -0.34 9.34 0 9 C0.07179964 7.48071962 0.08392007 5.95832518 0.0625 4.4375 C0.05347656 3.61121094 0.04445312 2.78492188 0.03515625 1.93359375 C0.02355469 1.29550781 0.01195312 0.65742188 0 0 Z " fill="#D1FBFA" transform="translate(160,455)"/>
<path d="M0 0 C0.66 0 1.32 0 2 0 C2.8638129 1.45264038 3.71580454 2.9123163 4.5625 4.375 C5.27599609 5.59316406 5.27599609 5.59316406 6.00390625 6.8359375 C6.33261719 7.55007812 6.66132813 8.26421875 7 9 C6.67 9.66 6.34 10.32 6 11 C4.9944239 9.54550599 3.99569565 8.08627557 3 6.625 C2.443125 5.81289062 1.88625 5.00078125 1.3125 4.1640625 C0 2 0 2 0 0 Z " fill="#CBFAFA" transform="translate(144,178)"/>
<path d="M0 0 C0.33 0 0.66 0 1 0 C1.125 5.75 1.125 5.75 0 8 C-0.66 8 -1.32 8 -2 8 C-2.33 8.66 -2.66 9.32 -3 10 C-2.49287967 6.28111761 -1.88391785 3.26545761 0 0 Z " fill="#CCF9FB" transform="translate(278,276)"/>
<path d="M0 0 C-4.625 3 -4.625 3 -8 3 C-7.67 2.01 -7.34 1.02 -7 0 C-3.86650268 -1.04449911 -3.01031744 -0.93423645 0 0 Z " fill="#CAFBFB" transform="translate(478,429)"/>
<path d="M0 0 C2.75 -0.3125 2.75 -0.3125 6 0 C8.375 2.5 8.375 2.5 10 5 C9.01 5.495 9.01 5.495 8 6 C8 5.34 8 4.68 8 4 C7.01 3.67 6.02 3.34 5 3 C5 2.34 5 1.68 5 1 C3.35 1 1.7 1 0 1 C0 0.67 0 0.34 0 0 Z " fill="#C3F7F9" transform="translate(150,450)"/>
<path d="M0 0 C0.33 0.66 0.66 1.32 1 2 C-0.65 4.31 -2.3 6.62 -4 9 C-4.33 7.68 -4.66 6.36 -5 5 C-2.5625 2.25 -2.5625 2.25 0 0 Z " fill="#D5FAFA" transform="translate(222,416)"/>
</svg>
