<?xml version="1.0" encoding="UTF-8"?>
<svg version="1.1" xmlns="http://www.w3.org/2000/svg" width="500" height="500">
<path d="M0 0 C1.77629341 -0.0037393 3.55258518 -0.00834193 5.32887435 -0.01373065 C10.1975395 -0.02594139 15.06613583 -0.02570245 19.93481278 -0.02334189 C25.1905868 -0.02293324 30.4463389 -0.03397746 35.70210266 -0.04345703 C45.99437285 -0.06005726 56.28662012 -0.06556613 66.57890257 -0.06668179 C74.94623855 -0.06763269 83.31356698 -0.07174509 91.68090057 -0.07808304 C115.41235219 -0.09569249 139.14378573 -0.10492233 162.87524393 -0.10342209 C164.15413499 -0.10334218 165.43302605 -0.10326227 166.75067139 -0.10317993 C168.0311268 -0.10309817 169.31158222 -0.10301641 170.63083932 -0.10293217 C191.38229917 -0.10211927 212.13368645 -0.12125874 232.88512531 -0.14945666 C254.2009021 -0.17819253 275.51664349 -0.19199658 296.83244014 -0.19026911 C308.79629631 -0.18960547 320.76007639 -0.19508644 332.7239151 -0.21662521 C342.90999122 -0.23484617 353.09595674 -0.23917674 363.28204212 -0.22560637 C368.47657613 -0.21908151 373.670898 -0.21894226 378.86541176 -0.23631287 C383.62638394 -0.25206963 388.38697623 -0.24915331 393.14793929 -0.2317446 C394.86458102 -0.22868046 396.58125129 -0.23228486 398.29785934 -0.24346475 C412.62569083 -0.3305528 425.48559468 1.32519545 436.64276123 11.26742554 C443.17829617 18.31112302 447.76163392 26.76678022 447.77698231 36.43391514 C447.78144015 37.73302785 447.785898 39.03214055 447.79049093 40.37062031 C447.79040162 41.82088698 447.79021176 43.27115364 447.78993225 44.72142029 C447.79323074 46.25543401 447.79695628 47.78944687 447.80107373 49.32345861 C447.81110372 53.55016277 447.81481214 57.77685273 447.81746304 62.0035671 C447.82136319 66.55794656 447.8309418 71.11231474 447.8396759 75.66668701 C447.85944961 86.67188214 447.86950816 97.6770782 447.87840369 108.68228665 C447.88278555 113.86371191 447.88815266 119.04513614 447.89339256 124.22656059 C447.91040657 141.4494318 447.9249006 158.67230238 447.9321413 175.8951807 C447.93405123 180.36586063 447.93597156 184.83654055 447.93792725 189.30722046 C447.93841099 190.41840016 447.93889473 191.52957986 447.93939313 192.67443167 C447.94769285 210.67356004 447.97302803 228.67262194 448.00550792 246.67172129 C448.03857647 265.14756864 448.05658993 283.62338221 448.05978554 302.09925932 C448.06195095 312.47412863 448.07070392 322.84890105 448.09624672 333.22374153 C448.11795099 342.05995445 448.1260055 350.89604693 448.11627994 359.73228348 C448.11173431 364.23985546 448.11363668 368.74717895 448.13304138 373.25471687 C448.15066732 377.38478937 448.14968007 381.51443198 448.13414409 385.64450901 C448.13176713 387.13517136 448.1360962 388.62586343 448.14797274 390.11648036 C448.24037324 402.48401108 445.89147406 412.72985133 437.64276123 422.26742554 C425.38431946 433.61858132 411.60512871 434.86524916 395.72184753 434.77536011 C393.93313642 434.77997656 392.14442911 434.78633445 390.35572964 434.79426908 C385.47128247 434.81088311 380.58715009 434.80275229 375.70270216 434.79032421 C370.42314875 434.78124351 365.14364804 434.79525835 359.86410522 434.8062439 C349.53391621 434.82400115 339.20384365 434.82020168 328.87365013 434.80859333 C320.47636051 434.79954878 312.07910347 434.79833944 303.68181038 434.8026886 C301.88705232 434.803608 301.88705232 434.803608 300.05603652 434.80454597 C297.62514423 434.80582491 295.19425195 434.80712176 292.76335967 434.80843633 C269.98602685 434.81983382 247.2087585 434.8067412 224.43143625 434.78523487 C204.89808588 434.76736237 185.36483059 434.77047089 165.83148193 434.78890991 C143.1324315 434.81032733 120.43343752 434.81873767 97.7343784 434.80646086 C95.31288438 434.8051867 92.89139035 434.80392921 90.46989632 434.8026886 C89.27855996 434.8020715 88.0872236 434.80145439 86.85978613 434.80081859 C78.47451298 434.79736849 70.0892757 434.80318668 61.7040081 434.81260681 C51.48248864 434.82383773 41.26109202 434.82076358 31.0395866 434.79948384 C25.82692999 434.78898859 20.61447803 434.78482571 15.40182304 434.79808044 C10.62562933 434.81004148 5.84982902 434.8033807 1.07367075 434.78217024 C-0.64955741 434.77771991 -2.37281914 434.77993494 -4.09602553 434.78967339 C-18.29542153 434.86373351 -30.3138885 432.93274943 -41.35723877 423.26742554 C-51.40725752 413.06308788 -52.95637911 401.73615248 -52.87190247 387.9095459 C-52.87723602 386.37488479 -52.88430635 384.84022892 -52.89294952 383.30558288 C-52.91149681 379.11403465 -52.90529937 374.92284164 -52.89479649 370.73127913 C-52.88778185 366.20081661 -52.90381959 361.67042541 -52.91679382 357.13998413 C-52.93840164 348.27438359 -52.93831512 339.40891157 -52.93016828 330.54329337 C-52.92386026 323.33493969 -52.92501267 316.1266234 -52.93144035 308.91827011 C-52.93234201 307.89107952 -52.93324366 306.86388892 -52.93417264 305.80557134 C-52.93602391 303.71861871 -52.93788647 301.63166609 -52.9397602 299.54471348 C-52.95632764 279.98781715 -52.94762864 260.43099302 -52.93077462 240.87410103 C-52.91608058 222.99710727 -52.9307038 205.12028162 -52.95954479 187.24330951 C-52.98896487 168.87000854 -52.99990332 150.49678509 -52.99036258 132.1234616 C-52.98934007 130.04371191 -52.98834546 127.96396221 -52.98737907 125.88421249 C-52.98690268 124.8610376 -52.98642629 123.8378627 -52.98593547 122.7836825 C-52.98377469 115.5886189 -52.9935576 108.39362897 -53.0081501 101.1985817 C-53.02569969 92.42335893 -53.02551847 83.64835039 -53.00279845 74.87313594 C-52.99167979 70.39952914 -52.98843958 65.92629941 -53.00709915 61.4527092 C-53.02398913 57.3504476 -53.01743889 53.24888944 -52.99288236 49.14667271 C-52.98802642 47.66966322 -52.99143949 46.19259606 -53.0043698 44.7156352 C-53.10940525 31.77518844 -50.39567168 20.43131729 -41.79083252 10.42758179 C-30.05288696 0.00850651 -14.73390833 -0.02939096 0 0 Z M-18.35723877 38.26742554 C-18.35723877 53.11742554 -18.35723877 67.96742554 -18.35723877 83.26742554 C124.20276123 83.26742554 266.76276123 83.26742554 413.64276123 83.26742554 C416.95212709 57.66430358 416.95212709 57.66430358 410.64276123 35.26742554 C407.42169671 34.66334646 407.42169671 34.66334646 403.6289978 34.76685429 C402.90718787 34.76134012 402.18537794 34.75582595 401.44169497 34.75014469 C399.00398168 34.73646428 396.56727314 34.7514916 394.12957764 34.76622009 C392.37195701 34.76233027 390.61433952 34.75669239 388.85672951 34.74944919 C384.01211794 34.7346307 379.16782928 34.74491354 374.32322788 34.75918591 C369.10434394 34.77025565 363.8855068 34.7583664 358.66662598 34.74934387 C348.43700832 34.73538204 338.20751377 34.74298927 327.97790194 34.75801945 C316.07516269 34.77484495 304.17245442 34.77167368 292.26970696 34.76792537 C271.03791365 34.7620414 249.80617957 34.77623942 228.57440186 34.8008728 C207.95328552 34.82479514 187.33224833 34.83187774 166.71112061 34.82138062 C144.27775291 34.8099815 121.84442186 34.80802888 99.41105461 34.82247871 C97.02074051 34.82400462 94.63042641 34.82552497 92.2401123 34.82703972 C90.47580649 34.82817644 90.47580649 34.82817644 88.67585814 34.82933613 C80.37113949 34.83408674 72.06643716 34.83222202 63.76171875 34.82797432 C53.64658001 34.82305694 43.53151624 34.82899042 33.41639471 34.84886862 C28.25153655 34.85876714 23.08679274 34.86381824 17.92192841 34.8559761 C13.19952455 34.84895228 8.4773521 34.85564608 3.7549789 34.87357973 C2.04103364 34.87764577 0.32706751 34.87658861 -1.38687015 34.87006087 C-3.70602002 34.86197998 -6.02437697 34.87213698 -8.34347534 34.8871088 C-10.2804576 34.8886525 -10.2804576 34.8886525 -12.25657082 34.89022738 C-15.69105955 34.98470482 -15.69105955 34.98470482 -18.35723877 38.26742554 Z M-18.35723877 118.26742554 C-18.42585707 153.63190353 -18.47874321 188.99636987 -18.51043476 224.36090069 C-18.51418702 228.53294879 -18.51806998 232.70499677 -18.52203369 236.87704468 C-18.52282062 237.70764865 -18.52360755 238.53825263 -18.52441833 239.39402642 C-18.53748374 252.85532816 -18.5611438 266.31659159 -18.58869716 279.77787057 C-18.61671983 293.58324416 -18.63340837 307.38859765 -18.63950425 321.19399852 C-18.64362723 329.7174491 -18.65666425 338.24079142 -18.68098817 346.7642087 C-18.69680666 352.6035257 -18.70164799 358.44278647 -18.6977429 364.28212336 C-18.69581523 367.65468045 -18.70045958 371.02689452 -18.71485519 374.39944458 C-18.72968209 378.05068579 -18.72622805 381.70145582 -18.71800232 385.35270691 C-18.73111011 386.96212456 -18.73111011 386.96212456 -18.7444827 388.6040557 C-18.73850955 389.57841282 -18.73253641 390.55276993 -18.72638226 391.55665302 C-18.72752142 392.40001188 -18.72866058 393.24337073 -18.72983426 394.11228591 C-18.48867868 396.29763411 -18.48867868 396.29763411 -17.27252752 398.03825361 C-14.33037694 399.92643308 -11.81480844 399.64363965 -8.34347534 399.64494896 C-7.26076044 399.65148944 -7.26076044 399.65148944 -6.15617251 399.65816206 C-3.71861274 399.66917829 -1.28161156 399.65866706 1.15594482 399.64837646 C2.91356383 399.65183052 4.67118067 399.65659338 6.42879295 399.6625582 C11.27335199 399.67513254 16.11773474 399.66886871 20.96229458 399.65959954 C26.18117431 399.65283562 31.40002287 399.66327704 36.61889648 399.67153931 C46.84849225 399.68490732 57.07802213 399.68198527 67.30762053 399.67330138 C75.61845664 399.66653729 83.92927423 399.66560259 92.2401123 399.66887283 C93.42114355 399.66933253 94.6021748 399.66979223 95.81899488 399.67026586 C98.21793509 399.671225 100.6168753 399.67219764 103.0158155 399.67318363 C125.53196014 399.68174652 148.04806819 399.67188932 170.56420684 399.65578254 C189.90095684 399.64237855 209.23765283 399.64470639 228.57440186 399.65853882 C251.00776624 399.67457879 273.44109853 399.68092246 295.87446785 399.67170203 C298.26478195 399.67074634 300.65509605 399.66980323 303.04541016 399.66887283 C304.22161403 399.66841001 305.3978179 399.66794718 306.60966432 399.66747033 C314.91438526 399.66487568 323.21908591 399.66926163 331.52380371 399.67631149 C341.6389377 399.68470913 351.75400181 399.68248304 361.86912775 399.66646926 C367.03398899 399.65856309 372.19873357 399.65553472 377.36359406 399.66541672 C382.0859926 399.67431576 386.80816566 399.66951042 391.53054357 399.65348406 C393.24449096 399.65011583 394.95845717 399.65187573 396.67239261 399.65911143 C398.99153681 399.66815572 401.30989553 399.65895823 403.6289978 399.64494896 C404.92031931 399.6444619 406.21164082 399.64397485 407.54209328 399.64347303 C410.58140477 399.50311587 410.58140477 399.50311587 412.55787539 398.03710294 C413.96322377 395.74468361 414.01660806 394.26143553 414.01469803 391.57506371 C414.02128787 390.60480668 414.02787772 389.63454966 414.03466725 388.63489091 C414.02258265 387.03233286 414.02258265 387.03233286 414.01025391 385.3973999 C414.01352275 384.26439819 414.01679159 383.13139648 414.02015948 381.96406138 C414.027473 378.14756828 414.01325142 374.3314541 413.99920654 370.51498413 C413.99833442 367.78713054 414.00196822 365.05928727 414.00540161 362.33143616 C414.01104145 355.6799233 414.00070841 349.0285255 413.98511365 342.37703227 C413.96760074 334.63779481 413.96615497 326.89857986 413.96549806 319.15932567 C413.96380915 305.35581581 413.94798285 291.55235848 413.92401123 277.74887085 C413.90074339 264.34098881 413.88658537 250.9331401 413.88299561 237.52523804 C413.88266145 236.28617174 413.88266145 236.28617174 413.88232055 235.02207379 C413.88187797 233.3581 413.88143594 231.69412621 413.88099448 230.03015242 C413.88077492 229.20941391 413.88055535 228.3886754 413.88032913 227.54306602 C413.88011315 226.72445806 413.87989716 225.9058501 413.87967463 225.06243583 C413.87597765 212.30256471 413.86461847 199.542699 413.85219873 186.78283381 C413.84775746 182.15096777 413.84432169 177.51910225 413.84157661 172.88723491 C413.83715189 165.54259748 413.8294057 158.19797999 413.8148022 150.85335515 C413.80817741 147.49531042 413.80365082 144.13729893 413.80234146 140.77924538 C413.80060688 137.14729844 413.79275361 133.51541741 413.78320312 129.88348389 C413.78406961 128.81065041 413.78493609 127.73781693 413.78582883 126.63247335 C413.78198768 125.66743182 413.77814654 124.7023903 413.774189 123.70810509 C413.7729425 122.86865077 413.771696 122.02919646 413.77041173 121.16430414 C413.85099033 119.25631007 413.85099033 119.25631007 412.64276123 118.26742554 C410.35979201 118.16923903 408.07370623 118.14371479 405.78862667 118.14437771 C405.05978377 118.14322386 404.33094087 118.14207002 403.58001181 118.14088121 C401.10667897 118.13820761 398.63340958 118.14274277 396.16007996 118.14717102 C394.38142779 118.14673547 392.60277568 118.14586086 390.82412392 118.14458185 C385.91229684 118.14233371 381.00049136 118.14636252 376.08866704 118.15135992 C370.80097332 118.15565968 365.51328091 118.15421833 360.22558594 118.15345764 C351.05625048 118.1529321 341.8869221 118.156082 332.71758842 118.16169548 C319.46010628 118.16980646 306.20262758 118.17242529 292.94514323 118.17368347 C271.43817866 118.17587463 249.93121788 118.18253642 228.42425537 118.19198608 C207.52646911 118.20115857 186.62868387 118.2082402 165.730896 118.2124939 C163.80019744 118.21288798 163.80019744 118.21288798 161.83049487 118.21329003 C155.3736308 118.21459502 148.91676673 118.21585874 142.45990264 118.21710193 C88.85418622 118.22747652 35.24847391 118.24509655 -18.35723877 118.26742554 Z " fill="#A5FAFE" transform="translate(52.35723876953125,32.732574462890625)"/>
<path d="M0 0 C20.53533009 -0.64172907 38.8792955 5.81788793 54.4375 19.16015625 C55.16324219 19.77375 55.88898438 20.38734375 56.63671875 21.01953125 C70.34216944 33.62100654 78.70145756 52.89356805 79.72265625 71.30078125 C80.16591138 85.05426474 77.80995354 97.5579734 71.59936523 109.88305664 C70.52865476 112.00043259 70.52865476 112.00043259 69.4375 115.16015625 C70.52799074 118.12596977 72.13308911 120.10068956 74.35998535 122.30296326 C74.9572493 122.89864105 75.55451324 123.49431885 76.1698761 124.10804749 C76.82344589 124.74971359 77.47701569 125.3913797 78.15039062 126.05249023 C79.18476509 127.08007446 79.18476509 127.08007446 80.24003601 128.12841797 C81.73676297 129.61419253 83.23575701 131.09768597 84.73674011 132.57916069 C87.11167038 134.9239429 89.47987422 137.27532793 91.84631348 139.62867737 C98.57545011 146.31804655 105.31718124 152.99467198 112.06201172 159.66821289 C116.18786475 163.75137362 120.30640164 167.84180022 124.42070007 171.93660164 C125.99030189 173.49563001 127.56281212 175.05173587 129.13825989 176.60485649 C131.34052843 178.77596221 133.53346732 180.95610164 135.72460938 183.13842773 C136.70496407 184.09789055 136.70496407 184.09789055 137.7051239 185.07673645 C142.24873473 189.6297323 144.69357713 193.36672942 144.875 199.97265625 C144.76039587 205.45728243 142.99625471 209.04781747 139.4375 213.16015625 C135.21885031 216.89667455 129.90694661 217.28055287 124.4375 217.16015625 C116.87249146 215.07325734 111.56167362 209.67956048 106.59814453 203.83447266 C101.23167758 197.68459157 95.43198749 191.94925504 89.6796875 186.1640625 C89.07452427 185.55482374 88.46936104 184.94558498 87.84585953 184.31788445 C84.65294102 181.10425405 81.45686441 177.89380233 78.25830078 174.68579102 C74.96015179 171.37650101 71.67386206 168.05568139 68.38995171 164.73227024 C65.85383247 162.17005124 63.30891031 159.6167155 60.76150894 157.0657177 C59.54531099 155.84465066 58.33249186 154.62020846 57.12316513 153.39233589 C55.4362596 151.68114155 53.73722866 149.9829525 52.03466797 148.28735352 C51.54000031 147.77987579 51.04533264 147.27239807 50.53567505 146.74954224 C47.64456189 143.90132975 45.55271414 142.32835149 41.4375 142.16015625 C38.91027376 143.15008358 36.59923656 144.19464577 34.1875 145.41015625 C16.31456692 153.82303017 -2.43871734 153.6382394 -21.1640625 148.09375 C-39.38757376 141.50458065 -56.00646982 127.74504985 -64.5625 110.16015625 C-72.83217468 90.03825869 -75.33945571 67.8815362 -66.79882812 47.32177734 C-58.32249559 27.87398081 -43.75084939 13.64732916 -24.32421875 5.22265625 C-16.39790204 2.1732105 -8.45607844 0.5285049 0 0 Z M-28 49.25390625 C-34.80333522 57.55397522 -38.20517605 67.67890653 -37.84375 78.37109375 C-36.69351269 89.77761373 -31.87741754 99.78221129 -23.47265625 107.6328125 C-20.08312081 110.34305454 -16.49171934 112.33897309 -12.5625 114.16015625 C-11.87542969 114.48113281 -11.18835938 114.80210937 -10.48046875 115.1328125 C-1.55204475 118.69424322 9.07003774 118.37838879 18.0703125 115.19140625 C29.29049924 110.30340411 37.33665301 102.97560558 42.46875 91.7578125 C46.60732186 80.66043232 46.0568534 69.74559573 41.73046875 58.796875 C36.89913879 48.94446496 28.64360998 41.16969946 18.4375 37.16015625 C0.94442388 31.37063284 -15.54997871 36.11221711 -28 49.25390625 Z " fill="#A4FBFE" transform="translate(213.5625,182.83984375)"/>
<path d="M0 0 C1.65 0 3.3 0 5 0 C0.52573951 5.69451335 -7.07515586 7.87150669 -14 9 C-16.44665041 9.09313514 -18.89562073 9.13087039 -21.34404087 9.13422108 C-22.07728074 9.13657331 -22.81052061 9.13892554 -23.56597987 9.14134905 C-26.03029399 9.14802179 -28.49455518 9.14758135 -30.95887756 9.14717102 C-32.7406799 9.15047072 -34.52248149 9.15419651 -36.30428213 9.1583125 C-41.2067006 9.16832854 -46.10910684 9.17204866 -51.01153409 9.17470181 C-56.29666563 9.17860601 -61.58178749 9.18818425 -66.86691284 9.19691467 C-79.63325709 9.21667542 -92.39960212 9.22674464 -105.16595784 9.23564246 C-111.17795005 9.24002586 -117.18994139 9.24539252 -123.20193291 9.25063133 C-143.18711317 9.26764295 -163.17229289 9.28213726 -183.15747929 9.28938007 C-188.34351159 9.29128996 -193.52954389 9.2932103 -198.71557617 9.29516602 C-200.00453714 9.29564976 -201.2934981 9.2961335 -202.62151849 9.2966319 C-223.50323497 9.30493274 -244.38489418 9.3302709 -265.26658566 9.36274669 C-286.70539831 9.39581713 -308.14418185 9.41382881 -329.58302015 9.41702431 C-341.62012658 9.41918938 -353.65714947 9.42793768 -365.69423103 9.45348549 C-375.94520486 9.47519219 -386.19607486 9.48324299 -396.44706906 9.47351871 C-401.67588463 9.46897402 -406.90448598 9.4708703 -412.13327217 9.49028015 C-416.92456772 9.50791214 -421.71549276 9.50691367 -426.50679224 9.49138286 C-428.23565151 9.48900687 -429.96453644 9.49332987 -431.69335652 9.50521151 C-441.42918974 9.56795234 -449.89898939 8.90847122 -459 5 C-456.41110871 4.04115137 -455.32138821 3.87039028 -452.71475589 4.92159528 C-449.29610421 6.27961429 -446.18287323 6.27761622 -442.56390572 6.25447559 C-441.820726 6.25768207 -441.07754628 6.26088855 -440.31184596 6.26419219 C-437.81370503 6.27251435 -435.31580246 6.26656019 -432.81765747 6.26069641 C-431.01166687 6.26371609 -429.20567756 6.26760464 -427.39969051 6.27228898 C-422.43059028 6.28260148 -417.46156194 6.28037889 -412.49245572 6.27610838 C-407.13584181 6.27364705 -401.77924547 6.28264795 -396.42263794 6.29014587 C-385.92595374 6.30291148 -375.4292951 6.30468424 -364.93260445 6.30234561 C-356.40255488 6.30056435 -347.87251308 6.30230797 -339.34246445 6.30657005 C-338.12955473 6.30716524 -336.91664502 6.30776043 -335.66698047 6.30837366 C-333.20314225 6.30958538 -330.73930404 6.31079951 -328.27546583 6.31201603 C-305.156408 6.32289877 -282.03736475 6.32072562 -258.9183061 6.31463119 C-237.75839346 6.30946154 -216.59852685 6.32071743 -195.43862332 6.33972941 C-173.72297857 6.35909146 -152.0073556 6.36736667 -130.29170215 6.36360615 C-118.09548546 6.36169161 -105.89930796 6.36420631 -93.7030983 6.37832069 C-83.32023641 6.39021468 -72.93743782 6.39166169 -62.5545751 6.37953053 C-57.25553474 6.37362786 -51.95661027 6.37258067 -46.65757751 6.38453293 C-41.80799461 6.39534445 -36.95862501 6.39234494 -32.10905229 6.37827124 C-30.35336888 6.37561123 -28.597669 6.37803154 -26.84200169 6.38600711 C-24.45700176 6.39609071 -22.07274653 6.38771079 -19.68777657 6.37473011 C-19.0048916 6.38203946 -18.32200662 6.3893488 -17.61842817 6.39687964 C-12.65861125 6.34086081 -9.39551426 5.08522348 -5 3 C-2.0625 2.3125 -2.0625 2.3125 0 2 C0 1.34 0 0.68 0 0 Z " fill="#CFFAFC" transform="translate(480,458)"/>
<path d="M0 0 C0.73071737 -0.00235223 1.46143474 -0.00470446 2.21429506 -0.00712797 C4.66401661 -0.01378749 7.11368475 -0.01336067 9.56341457 -0.01294994 C11.33711767 -0.01625046 13.11082003 -0.01997642 14.88452142 -0.02409142 C19.7599468 -0.03409804 24.63535986 -0.03782606 29.51079404 -0.04048073 C34.76866037 -0.04438771 40.02651698 -0.05396571 45.2843771 -0.0626936 C57.98208443 -0.08244595 70.67979255 -0.09252224 83.37751141 -0.10142139 C89.35849046 -0.10580593 95.33946862 -0.11117227 101.32044697 -0.11641026 C121.20444111 -0.13342061 141.0884347 -0.14791488 160.972435 -0.155159 C166.13113372 -0.15706886 171.28983244 -0.15898919 176.44853115 -0.16094494 C178.37175903 -0.16167055 178.37175903 -0.16167055 180.33384001 -0.16241082 C201.10488655 -0.17071154 221.87587551 -0.19605006 242.64689691 -0.22852562 C263.97613485 -0.26160188 285.30534353 -0.27960824 306.63460726 -0.28280324 C318.60857365 -0.2849677 330.58245605 -0.29370727 342.55639744 -0.31926441 C352.75351981 -0.34097903 362.95053778 -0.34901799 373.14768065 -0.33929763 C378.3482738 -0.33475531 383.54865156 -0.33663544 388.74921513 -0.35605907 C393.51585134 -0.37370794 398.28211531 -0.37267895 403.04875558 -0.35716178 C404.76750864 -0.35478836 406.48628759 -0.35909541 408.20500112 -0.37099043 C418.12475412 -0.43535766 427.34925356 -0.09551512 436.56693935 4.13422108 C437.55693935 5.12422108 438.54693935 6.11422108 439.56693935 7.13422108 C436.59693935 6.47422108 433.62693935 5.81422108 430.56693935 5.13422108 C430.56693935 4.47422108 430.56693935 3.81422108 430.56693935 3.13422108 C374.21647068 3.08847448 317.86600385 3.05321756 261.51552026 3.03209042 C254.86753949 3.02958891 248.21955875 3.0270026 241.57157803 3.0243578 C240.91001651 3.02409628 240.24845499 3.02383476 239.56684615 3.02356532 C218.11548784 3.01503938 196.66414005 3.00001433 175.21278811 2.98162664 C152.54818622 2.9622342 129.88359088 2.95023101 107.21898097 2.94604409 C93.63772128 2.94329559 80.05649178 2.93460498 66.47524139 2.91838814 C57.17056712 2.90784165 47.86590854 2.90461514 38.56122873 2.90721832 C33.18755649 2.90850326 27.81393715 2.9064905 22.44027424 2.89581013 C17.52464434 2.88611113 12.60910314 2.88556429 7.69346925 2.89242329 C5.91142529 2.89327161 4.1293759 2.89070622 2.34734271 2.88445471 C-0.06832323 2.87647042 -2.48366572 2.8807293 -4.89932632 2.88812542 C-5.59691629 2.88287139 -6.29450625 2.87761737 -7.0132353 2.87220412 C-10.95948871 2.89965023 -13.84157748 3.54609468 -17.43306065 5.13422108 C-19.74556065 4.75922108 -19.74556065 4.75922108 -21.43306065 4.13422108 C-14.12542316 1.23636483 -7.92794425 0.01090787 0 0 Z " fill="#CCFAFB" transform="translate(42.43306064605713,32.86577892303467)"/>
<path d="M0 0 C3.745408 2.12404991 6.25578667 4.79065334 8.5 8.4375 C9.3415382 12.75038327 9.17767425 16.22291071 6.6953125 19.96875 C2.75918079 24.74693974 2.75918079 24.74693974 -1 26 C-6.30934666 26.34253849 -9.74909723 26.54241898 -14 23 C-17.37858037 19.07354173 -18.66876201 16.04353555 -18.38671875 10.95703125 C-17.53217269 6.63251026 -15.06840624 3.91577678 -11.8125 1.125 C-7.76773084 -0.49290766 -4.2845972 -0.90818812 0 0 Z " fill="#A7FAFC" transform="translate(75,79)"/>
<path d="M0 0 C3.30361229 2.99629952 4.47187047 5.14704282 5.6875 9.4375 C5.87624123 13.57407864 5.11447622 16.73603906 2.9375 20.3125 C-0.51489106 23.57309156 -3.04840072 24.32258188 -7.75 24.75 C-11.83396468 24.39175748 -13.96489018 23.81802254 -17.3125 21.4375 C-20.16270706 17.62577731 -21.33092086 14.52433092 -21.25 9.75 C-19.91122121 5.01964829 -18.75837487 2.41262491 -14.625 -0.375 C-9.17746939 -2.32788833 -5.27573724 -2.4885553 0 0 Z " fill="#A7FAFD" transform="translate(158.3125,80.5625)"/>
<path d="M0 0 C3.84459389 1.36696672 5.40624505 3.30634728 7.375 6.75 C9.2203966 10.88701615 9.44057362 13.59824728 8 18 C5.48306097 21.75293588 3.34847429 24.55050857 -1 26 C-5.68953585 26.38438818 -8.06443464 26.45895659 -12.3125 24.375 C-15.40483097 21.6422424 -16.73724492 19.93682468 -18 16 C-18.28767252 11.06598035 -17.7675754 7.94936957 -14.625 4.0625 C-9.44154421 -0.01021526 -6.43920198 -0.69275365 0 0 Z " fill="#A2FBFD" transform="translate(115,79)"/>
<path d="M0 0 C1.485 0.99 1.485 0.99 3 2 C6.24961317 2.30735029 6.24961317 2.30735029 10.05337811 2.26171303 C11.14250631 2.26770712 11.14250631 2.26770712 12.25363711 2.27382231 C14.70559209 2.28485902 17.15732374 2.28158657 19.60929871 2.2784729 C21.37730504 2.28347223 23.14530908 2.28934695 24.91330987 2.29602563 C29.78641703 2.31188363 34.65946662 2.31525949 39.53259647 2.31667423 C44.78209836 2.3203582 50.0315683 2.33550859 55.28105164 2.34928894 C64.38104609 2.37159725 73.48102924 2.38658903 82.58104515 2.39665604 C95.73824844 2.41122187 108.89541233 2.43675275 122.05259255 2.46498732 C143.39760011 2.5104935 164.74261334 2.54709246 186.08764648 2.578125 C206.82626337 2.6082949 227.5648664 2.64263797 248.3034668 2.68261719 C249.58111273 2.68507874 250.85875867 2.68754028 252.17512115 2.69007643 C258.58449188 2.70245072 264.99386244 2.71490732 271.40323293 2.72740483 C324.60213595 2.83102988 377.80105626 2.92021422 431 3 C431 3.33 431 3.66 431 4 C289.1 4 147.2 4 1 4 C0.67 2.68 0.34 1.36 0 0 Z " fill="#B4F0F3" transform="translate(33,430)"/>
<path d="M0 0 C4.70424743 1.67262131 6.24913014 4.70724634 8.3984375 8.96484375 C9.10755287 11.36386393 8.80446367 12.66496583 8 15 C7.6596875 13.081875 7.6596875 13.081875 7.3125 11.125 C6.8306008 8.92647455 6.8306008 8.92647455 6 7 C3.58500543 5.53335352 3.58500543 5.53335352 1 5 C0.34 4.34 -0.32 3.68 -1 3 C-3.20250992 2.53993654 -3.20250992 2.53993654 -5.625 2.375 C-6.44226563 2.30023438 -7.25953125 2.22546875 -8.1015625 2.1484375 C-8.72804688 2.09945312 -9.35453125 2.05046875 -10 2 C-10.29648438 2.62519531 -10.59296875 3.25039062 -10.8984375 3.89453125 C-12 6 -12 6 -13.625 7.6875 C-15.76078749 11.27950623 -15.23543781 14.9190779 -15 19 C-14.37867187 19.29777344 -13.75734375 19.59554687 -13.1171875 19.90234375 C-11 21 -11 21 -9.125 22.5625 C-6.46214766 24.36384129 -4.16164275 24.64072241 -1 25 C-1 25.33 -1 25.66 -1 26 C-5.6073073 26.31774533 -8.1253016 26.42909733 -12.3125 24.375 C-15.40483097 21.6422424 -16.73724492 19.93682468 -18 16 C-18.28767252 11.06598035 -17.7675754 7.94936957 -14.625 4.0625 C-9.44154421 -0.01021526 -6.43920198 -0.69275365 0 0 Z " fill="#D3FAFA" transform="translate(115,79)"/>
<path d="M0 0 C0 4.30967916 -2.16725288 5.89746745 -5 9 C-5.99 9.495 -5.99 9.495 -7 10 C-7.268125 10.86625 -7.53625 11.7325 -7.8125 12.625 C-8.83450994 15.52965984 -9.56543054 16.91471465 -11.375 19.25 C-14.54459221 23.43536657 -16.23279968 28.09330415 -18 33 C-18.66 33 -19.32 33 -20 33 C-20.33 33.99 -20.66 34.98 -21 36 C-19.57417032 21.63202395 -10.1582333 9.66270973 0 0 Z " fill="#C2FAFA" transform="translate(166,203)"/>
<path d="M0 0 C3.30361229 2.99629952 4.47187047 5.14704282 5.6875 9.4375 C5.71838548 12.33044014 5.32973051 14.57216388 4.6875 17.4375 C4.0275 17.7675 3.3675 18.0975 2.6875 18.4375 C2.62691406 17.59445313 2.56632812 16.75140625 2.50390625 15.8828125 C2.37822266 14.23925781 2.37822266 14.23925781 2.25 12.5625 C2.16878906 11.47195312 2.08757812 10.38140625 2.00390625 9.2578125 C1.85748297 6.49021029 1.85748297 6.49021029 0.6875 4.4375 C-1.32919827 3.30399466 -1.32919827 3.30399466 -3.3125 2.4375 C-3.3125 2.1075 -3.3125 1.7775 -3.3125 1.4375 C-7.2725 1.4375 -11.2325 1.4375 -15.3125 1.4375 C-12.63386136 -3.91977728 -4.41935263 -2.0846003 0 0 Z " fill="#CEF9FA" transform="translate(158.3125,80.5625)"/>
<path d="M0 0 C0.92842565 3.36984126 0.9497363 5.88509261 0.5625 9.375 C-0.42113394 20.31460453 -0.71024048 29.62212315 3.125 40.0625 C4.0554939 43.18630095 4.15432577 45.7591588 4 49 C2.2792024 46.4188036 1.38948998 44.57337537 0.4375 41.6875 C0.18871094 40.94886719 -0.06007812 40.21023438 -0.31640625 39.44921875 C-2.15687558 32.85508007 -2.18316445 26.42314319 -2.1875 19.625 C-2.19974609 18.62210937 -2.21199219 17.61921875 -2.22460938 16.5859375 C-2.23617576 10.69479117 -1.70408118 5.64434793 0 0 Z " fill="#CEFAFB" transform="translate(144,239)"/>
<path d="M0 0 C0 0.33 0 0.66 0 1 C-1.77074917 1.02705729 -3.54161711 1.04642195 -5.3125 1.0625 C-6.29863281 1.07410156 -7.28476563 1.08570313 -8.30078125 1.09765625 C-11 1 -11 1 -14 0 C-15.45741472 -0.09185751 -16.9186012 -0.13066657 -18.37890625 -0.1328125 C-19.21744141 -0.13410156 -20.05597656 -0.13539063 -20.91992188 -0.13671875 C-21.79197266 -0.13285156 -22.66402344 -0.12898437 -23.5625 -0.125 C-24.43841797 -0.12886719 -25.31433594 -0.13273438 -26.21679688 -0.13671875 C-27.05404297 -0.13542969 -27.89128906 -0.13414062 -28.75390625 -0.1328125 C-29.52033447 -0.13168457 -30.2867627 -0.13055664 -31.07641602 -0.12939453 C-33.08443868 -0.11868694 -33.08443868 -0.11868694 -35 1 C-37.00800456 0.71887936 -39.01014051 0.38932033 -41 0 C-29.66486409 -7.08445995 -12.18637121 -2.42572318 0 0 Z " fill="#CFF9FC" transform="translate(240,186)"/>
<path d="M0 0 C0 0.66 0 1.32 0 2 C-0.66 2 -1.32 2 -2 2 C-2.433125 2.928125 -2.433125 2.928125 -2.875 3.875 C-5.09452809 8.06744194 -7.66866576 8.58398688 -12 10 C-13.0725 10.556875 -14.145 11.11375 -15.25 11.6875 C-16.1575 12.120625 -17.065 12.55375 -18 13 C-18.66 12.67 -19.32 12.34 -20 12 C-5.78640777 0 -5.78640777 0 0 0 Z " fill="#CAF9FA" transform="translate(187,190)"/>
<path d="M0 0 C7.277711 4.92315744 11.60819742 12.69903812 14 21 C13.56640625 23.23046875 13.56640625 23.23046875 13 25 C13 24.34 13 23.68 13 23 C12.34 23 11.68 23 11 23 C10.82984375 22.41992188 10.6596875 21.83984375 10.484375 21.2421875 C8.92681558 16.22154385 7.08278873 12.31590422 4 8 C3.67 7.01 3.34 6.02 3 5 C0.99983534 3.79117904 0.99983534 3.79117904 -1 3 C-0.67 2.01 -0.34 1.02 0 0 Z " fill="#C8F9F9" transform="translate(486,42)"/>
<path d="M0 0 C3.96983874 -0.4861027 7.5040257 -0.83203065 11.0859375 1.16015625 C14.46963569 3.95135032 17.13682303 6.57621802 18 11 C17.6816507 17.15475313 17.6816507 17.15475313 15.4375 19.9375 C14.963125 20.288125 14.48875 20.63875 14 21 C14.16371094 20.44828125 14.32742187 19.8965625 14.49609375 19.328125 C15.05760414 16.73385993 15.09739008 14.40164589 15.0625 11.75 C15.05347656 10.85796875 15.04445313 9.9659375 15.03515625 9.046875 C15.02355469 8.37140625 15.01195313 7.6959375 15 7 C12.69 6.34 10.38 5.68 8 5 C8 3.68 8 2.36 8 1 C5.36 1 2.72 1 0 1 C0 0.67 0 0.34 0 0 Z " fill="#D5FBFB" transform="translate(66,79)"/>
<path d="M0 0 C0.66 0 1.32 0 2 0 C4.73186001 3.99521029 4.25869305 8.23621086 4.1875 12.875 C4.18685547 13.66519531 4.18621094 14.45539063 4.18554688 15.26953125 C4.15299236 19.61736729 3.86003923 23.72044481 3 28 C2.34 28 1.68 28 1 28 C1.09539062 27.06800781 1.19078125 26.13601563 1.2890625 25.17578125 C2.04923282 16.43382257 1.76816521 8.66547083 0 0 Z " fill="#CFF9FB" transform="translate(256,244)"/>
<path d="M0 0 C1.98 0.99 1.98 0.99 4 2 C4 2.99 4 3.98 4 5 C4.99 5 5.98 5 7 5 C7.33 6.32 7.66 7.64 8 9 C8.99 8.67 9.98 8.34 11 8 C11.69710731 9.28650706 12.38242876 10.57940665 13.0625 11.875 C13.44535156 12.59429687 13.82820312 13.31359375 14.22265625 14.0546875 C14.60744141 15.01761719 14.60744141 15.01761719 15 16 C14.67 16.66 14.34 17.32 14 18 C8.78162727 12.98626934 3.88131047 8.13497461 0 2 C0 1.34 0 0.68 0 0 Z " fill="#C6FAFA" transform="translate(153,298)"/>
<path d="M0 0 C2.76679328 0.50305332 5.28591645 1.10341659 7.9375 2.0625 C16.11253609 4.46481324 25.68896091 3.32976625 34 2 C32.26098569 4.19120162 31.37135955 4.93831794 28.56738281 5.40405273 C25.46070704 5.43609397 22.35684923 5.45774606 19.25 5.4375 C17.64125 5.4674707 17.64125 5.4674707 16 5.49804688 C9.4389606 5.49400683 5.35516431 4.86336854 0 1 C0 0.67 0 0.34 0 0 Z " fill="#CCFBFB" transform="translate(198,296)"/>
<path d="M0 0 C0.66 0.33 1.32 0.66 2 1 C1.72285156 1.50789063 1.44570313 2.01578125 1.16015625 2.5390625 C-1.0334683 6.7077298 -2.52413155 10.24131553 -3 15 C-2.34 15.33 -1.68 15.66 -1 16 C-1.33 17.32 -1.66 18.64 -2 20 C-4.68728923 16.41694769 -5.5207403 13.50421544 -5.3671875 9 C-4.69984093 5.36509102 -2.57571303 2.57571303 0 0 Z " fill="#CCF9FA" transform="translate(62,81)"/>
<path d="M0 0 C0.33 0 0.66 0 1 0 C0.79479575 8.7678179 -1.44479807 15.96436537 -7.3125 22.625 C-8.1478125 23.305625 -8.1478125 23.305625 -9 24 C-9 22.68 -9 21.36 -9 20 C-8.34 20 -7.68 20 -7 20 C-6.67 18.35 -6.34 16.7 -6 15 C-5.34 15 -4.68 15 -4 15 C-4 13.68 -4 12.36 -4 11 C-3.34 11 -2.68 11 -2 11 C-2.04125 10.29875 -2.0825 9.5975 -2.125 8.875 C-1.98331668 5.61628372 -1.13265314 3.0440053 0 0 Z " fill="#C5FAFA" transform="translate(499,430)"/>
<path d="M0 0 C-14.13551642 6.58200163 -14.13551642 6.58200163 -22 6 C-22.99 5.34 -23.98 4.68 -25 4 C-23.90300781 3.80664062 -22.80601562 3.61328125 -21.67578125 3.4140625 C-20.22130418 3.15131825 -18.76687983 2.88828199 -17.3125 2.625 C-16.59126953 2.49867188 -15.87003906 2.37234375 -15.12695312 2.2421875 C-11.97000608 1.66557617 -9.20250914 1.08511667 -6.23046875 -0.1640625 C-3.67537608 -1.12166291 -2.51970474 -0.93322398 0 0 Z " fill="#C5F9FA" transform="translate(251,327)"/>
<path d="M0 0 C0.7115625 -0.020625 1.423125 -0.04125 2.15625 -0.0625 C6.89920895 -0.09789522 8.00780502 0.25585377 12 3.25 C4.08 3.25 -3.84 3.25 -12 3.25 C-12 2.59 -12 1.93 -12 1.25 C-8.06774747 -0.01978988 -4.08897283 0.02963024 0 0 Z " fill="#C9F9FB" transform="translate(217,215.75)"/>
<path d="M0 0 C4.03477342 0.58158896 6.85241201 1.86756059 10.3125 4 C11.19550781 4.53625 12.07851563 5.0725 12.98828125 5.625 C13.65214844 6.07875 14.31601562 6.5325 15 7 C15 7.33 15 7.66 15 8 C12.03 7.67 9.06 7.34 6 7 C6 6.01 6 5.02 6 4 C4.02 3.34 2.04 2.68 0 2 C0 1.34 0 0.68 0 0 Z " fill="#C4F8F9" transform="translate(245,189)"/>
<path d="M0 0 C1.65 0 3.3 0 5 0 C1.47313829 4.48873309 -3.58251782 6.58485642 -9 8 C-11.3125 7.60546875 -11.3125 7.60546875 -13 7 C-11.39967863 6.15930585 -9.79458829 5.32768495 -8.1875 4.5 C-6.84751953 3.80390625 -6.84751953 3.80390625 -5.48046875 3.09375 C-3 2 -3 2 0 2 C0 1.34 0 0.68 0 0 Z " fill="#CDF9FA" transform="translate(480,458)"/>
<path d="M0 0 C6.875 0.875 6.875 0.875 8 2 C10.01964199 2.07244053 12.04167124 2.08377188 14.0625 2.0625 C15.16722656 2.05347656 16.27195312 2.04445313 17.41015625 2.03515625 C18.26480469 2.02355469 19.11945313 2.01195312 20 2 C17.13669848 4.86330152 14.54915642 4.70854917 10.6171875 5.0390625 C6.70772371 4.98071229 4.37709404 3.94003274 1 2 C0.67 1.34 0.34 0.68 0 0 Z " fill="#CBF9FA" transform="translate(330,395)"/>
<path d="M0 0 C3.75492603 2.66797376 5.91585412 4.46629906 7 9 C7.24891354 12.35238875 7.402233 15.65791695 7 19 C6.34 19.66 5.68 20.32 5 21 C5.33 17.37 5.66 13.74 6 10 C5.34 10 4.68 10 4 10 C4 8.35 4 6.7 4 5 C2.68 4.67 1.36 4.34 0 4 C0 2.68 0 1.36 0 0 Z " fill="#C7F9F9" transform="translate(351,369)"/>
<path d="M0 0 C2.31097404 2.86057532 3.82929391 5.58627129 5.1875 9 C5.53167969 9.845625 5.87585938 10.69125 6.23046875 11.5625 C7 14 7 14 7 18 C6.34 18 5.68 18 5 18 C4.67 15.36 4.34 12.72 4 10 C3.34 10 2.68 10 2 10 C0.68373308 6.38026598 0 3.90432869 0 0 Z " fill="#CAF9F9" transform="translate(283,222)"/>
<path d="M0 0 C0.33 0 0.66 0 1 0 C1.13277344 1.01320312 1.26554688 2.02640625 1.40234375 3.0703125 C1.58067584 4.42188204 1.75906425 5.77344414 1.9375 7.125 C2.02451172 7.79015625 2.11152344 8.4553125 2.20117188 9.140625 C2.72630558 13.10830188 3.31814014 17.05626998 4 21 C3.34 21 2.68 21 2 21 C-0.71486934 17.02389214 -0.22440753 12.86098023 -0.125 8.25 C-0.11597656 7.45722656 -0.10695312 6.66445313 -0.09765625 5.84765625 C-0.07417012 3.89830719 -0.03830137 1.94911425 0 0 Z " fill="#C7FAFB" transform="translate(175,254)"/>
<path d="M0 0 C0.99 0.495 0.99 0.495 2 1 C2.67258667 3.33163378 3.33847444 5.6652039 4 8 C4.556875 8.9075 5.11375 9.815 5.6875 10.75 C6.120625 11.4925 6.55375 12.235 7 13 C6.67 13.99 6.34 14.98 6 16 C3.41889881 13.73701772 2.35070956 11.81995115 1.3125 8.5625 C1.06113281 7.80066406 0.80976562 7.03882813 0.55078125 6.25390625 C0 4 0 4 0 0 Z " fill="#C5F9FA" transform="translate(0,432)"/>
<path d="M0 0 C0 0.66 0 1.32 0 2 C-0.66 2 -1.32 2 -2 2 C-2.433125 2.928125 -2.433125 2.928125 -2.875 3.875 C-4 6 -4 6 -6 8 C-8.125 7.625 -8.125 7.625 -10 7 C-9.67 6.34 -9.34 5.68 -9 5 C-8.01 5 -7.02 5 -6 5 C-6 4.01 -6 3.02 -6 2 C-2.25 0 -2.25 0 0 0 Z " fill="#B6F8FA" transform="translate(187,190)"/>
<path d="M0 0 C1.32 0.33 2.64 0.66 4 1 C3.195625 1.886875 2.39125 2.77375 1.5625 3.6875 C-0.7039159 6.38287032 -1.68417366 8.42063478 -2 12 C-2.33 12 -2.66 12 -3 12 C-3.36923077 4.61538462 -3.36923077 4.61538462 -1.5 1.5 C-1.005 1.005 -0.51 0.51 0 0 Z " fill="#C1F8F5" transform="translate(101,82)"/>
<path d="M0 0 C5.20540698 0.96396425 9.59913433 1.87680501 14 5 C10.79937313 6.60031344 8.27728194 5.03173691 5 4 C5 3.34 5 2.68 5 2 C3.02 2 1.04 2 -1 2 C-0.67 1.34 -0.34 0.68 0 0 Z " fill="#CAF9F9" transform="translate(468,34)"/>
<path d="M0 0 C0.99 0.33 1.98 0.66 3 1 C-0.17320782 4.53586014 -2.16743695 6.58578031 -7 7 C-4.66666667 4.66666667 -2.33333333 2.33333333 0 0 Z " fill="#C2F9FA" transform="translate(247,287)"/>
<path d="M0 0 C1.28497537 3.85492611 0.4052209 5.40346836 -0.9375 9.1875 C-1.31777344 10.27417969 -1.69804687 11.36085938 -2.08984375 12.48046875 C-2.39019531 13.31191406 -2.69054687 14.14335937 -3 15 C-4.52730554 10.06062889 -3.0005063 6.16776364 -0.875 1.5625 C-0.58625 1.046875 -0.2975 0.53125 0 0 Z " fill="#CEFAFB" transform="translate(290,275)"/>
<path d="M0 0 C3.01657791 0.14030595 5.23841273 0.29351465 7.51171875 2.40234375 C8.73256066 3.88904235 9.87246522 5.44134898 11 7 C10.67 7.66 10.34 8.32 10 9 C8.8944811 8.06409496 7.79064547 7.12620142 6.6875 6.1875 C6.07261719 5.66542969 5.45773438 5.14335937 4.82421875 4.60546875 C3.14575321 3.12827531 1.56117966 1.59960869 0 0 Z " fill="#CEFAFA" transform="translate(237,222)"/>
<path d="M0 0 C3.37462715 0.54723683 5.08235 1.0549 8 3 C9.9896995 3.39013716 11.99019869 3.73202649 14 4 C14 4.33 14 4.66 14 5 C8.76389884 5.31416607 5.48507697 4.77647622 1 2 C0.67 1.34 0.34 0.68 0 0 Z " fill="#D6FAFB" transform="translate(140,100)"/>
<path d="M0 0 C0.33 0.99 0.66 1.98 1 3 C-0.109375 4.82421875 -0.109375 4.82421875 -1.75 6.6875 C-2.28109375 7.31011719 -2.8121875 7.93273437 -3.359375 8.57421875 C-5 10 -5 10 -8 10 C-8 9.34 -8 8.68 -8 8 C-7.360625 7.896875 -6.72125 7.79375 -6.0625 7.6875 C-5.381875 7.460625 -4.70125 7.23375 -4 7 C-3.67 6.01 -3.34 5.02 -3 4 C-2.34 4 -1.68 4 -1 4 C-0.67 2.68 -0.34 1.36 0 0 Z " fill="#CEF9FB" transform="translate(122,94)"/>
<path d="M0 0 C0.33 0 0.66 0 1 0 C0.91266424 1.60517097 0.80447776 3.20921662 0.6875 4.8125 C0.62949219 5.70582031 0.57148437 6.59914063 0.51171875 7.51953125 C-0.06313581 10.30604 -0.8206856 11.24135754 -3 13 C-2.52060632 8.28596212 -2.03165952 4.33420699 0 0 Z " fill="#C7F9F9" transform="translate(3,55)"/>
<path d="M0 0 C0.99 0 1.98 0 3 0 C4.60355101 3.50776784 5.22036864 6.14354879 5 10 C2.08772731 6.71195019 0.50298788 4.40114397 0 0 Z " fill="#C2FAFB" transform="translate(148,288)"/>
<path d="M0 0 C-0.33 0.66 -0.66 1.32 -1 2 C-3.50390625 2.4140625 -3.50390625 2.4140625 -6.5625 2.625 C-7.57441406 2.69976562 -8.58632812 2.77453125 -9.62890625 2.8515625 C-10.41136719 2.90054688 -11.19382813 2.94953125 -12 3 C-8.61613364 -0.38386636 -4.56431325 -1.75550509 0 0 Z " fill="#CDFAFB" transform="translate(199,187)"/>
<path d="M0 0 C0.66 0.33 1.32 0.66 2 1 C0.71520959 2.50589388 -0.57804082 4.00457375 -1.875 5.5 C-2.95394531 6.75296875 -2.95394531 6.75296875 -4.0546875 8.03125 C-4.69664063 8.6809375 -5.33859375 9.330625 -6 10 C-6.66 10 -7.32 10 -8 10 C-6.23915938 6.0381086 -3.9706445 1.98532225 0 0 Z " fill="#DFFDFD" transform="translate(15,40)"/>
<path d="M0 0 C3.63 0.33 7.26 0.66 11 1 C11 1.66 11 2.32 11 3 C11.66 3.33 12.32 3.66 13 4 C8.428721 3.45144652 4.32564205 2.58255197 0 1 C0 0.67 0 0.34 0 0 Z " fill="#CEFBFA" transform="translate(187,328)"/>
<path d="M0 0 C0.33 0 0.66 0 1 0 C1.25 2.75 1.25 2.75 1 6 C-1 8.375 -1 8.375 -3 10 C-3.33 9.34 -3.66 8.68 -4 8 C-3.22265625 6.0546875 -3.22265625 6.0546875 -2.0625 3.875 C-1.49208984 2.78832031 -1.49208984 2.78832031 -0.91015625 1.6796875 C-0.60980469 1.12539063 -0.30945313 0.57109375 0 0 Z " fill="#CBFAFC" transform="translate(256,272)"/>
<path d="M0 0 C0.66 0 1.32 0 2 0 C4.60018816 3.90028225 4.15085514 7.47434569 4 12 C3.67 12 3.34 12 3 12 C2.01 8.04 1.02 4.08 0 0 Z " fill="#C0F8F9" transform="translate(256,244)"/>
<path d="M0 0 C1.18414294 3.55242882 0.69535532 4.69830562 -0.4375 8.1875 C-0.72496094 9.08855469 -1.01242188 9.98960937 -1.30859375 10.91796875 C-1.53675781 11.60503906 -1.76492187 12.29210937 -2 13 C-2.33 13 -2.66 13 -3 13 C-3.4726477 4.80743982 -3.4726477 4.80743982 -1.5 1.4375 C-0.7575 0.7259375 -0.7575 0.7259375 0 0 Z " fill="#CDF9FA" transform="translate(179,240)"/>
<path d="M0 0 C6.70909091 2.60909091 6.70909091 2.60909091 9 4 C9.33 4.99 9.66 5.98 10 7 C5.56541027 5.6062718 3.12621626 3.39417765 0 0 Z " fill="#D3FAFC" transform="translate(11,455)"/>
<path d="M0 0 C0.99 0 1.98 0 3 0 C5 3 5 3 4.625 5.1875 C4.41875 5.785625 4.2125 6.38375 4 7 C0 2.25 0 2.25 0 0 Z " fill="#C9FAFA" transform="translate(6,448)"/>
<path d="M0 0 C1.65 0 3.3 0 5 0 C2.93243723 2.7972908 1.85559629 3.02692273 -1.6875 3.6875 C-2.780625 3.790625 -3.87375 3.89375 -5 4 C-4.34 3.34 -3.68 2.68 -3 2 C-2.01 2 -1.02 2 0 2 C0 1.34 0 0.68 0 0 Z " fill="#B9F7F6" transform="translate(480,458)"/>
</svg>
